<svg width="73" height="41" viewBox="0 0 73 41" fill="none" xmlns="http://www.w3.org/2000/svg">
<path d="M39.2368 19.0739L21.7727 1.61385C21.2884 1.13175 20.6329 0.861084 19.9495 0.861084C19.2662 0.861084 18.6106 1.13175 18.1263 1.61385L14.5079 5.23628L19.1064 9.83681C19.649 9.65349 20.2321 9.62587 20.7895 9.7571C21.347 9.88832 21.8565 10.1731 22.2603 10.5792C22.6641 10.9853 22.946 11.4965 23.0741 12.0547C23.2022 12.6128 23.1713 13.1958 22.9849 13.7373L27.4134 18.1718C28.069 17.9417 28.7835 17.9416 29.4392 18.1715C30.0949 18.4014 30.6529 18.8476 31.0213 19.4367C31.3898 20.0258 31.5468 20.7228 31.4665 21.413C31.3863 22.1032 31.0736 22.7455 30.5798 23.2344C29.3816 24.4345 27.4474 24.4345 26.2473 23.2344C25.821 22.8076 25.5297 22.2648 25.4099 21.6736C25.29 21.0825 25.3468 20.4691 25.5732 19.91L21.4247 15.7835V26.6588C21.7167 26.8008 21.9968 26.9968 22.2388 27.2388C22.8107 27.8148 23.1316 28.5935 23.1316 29.4051C23.1316 30.2167 22.8107 30.9954 22.2388 31.5714C21.9534 31.8572 21.6145 32.0839 21.2414 32.2386C20.8683 32.3934 20.4684 32.473 20.0645 32.473C19.6606 32.473 19.2607 32.3934 18.8876 32.2386C18.5146 32.0839 18.1756 31.8572 17.8903 31.5714C17.6055 31.2874 17.3796 30.9501 17.2255 30.5787C17.0713 30.2073 16.992 29.8092 16.992 29.4071C16.992 29.005 17.0713 28.6069 17.2255 28.2355C17.3796 27.8641 17.6055 27.5268 17.8903 27.2428C18.1943 26.9428 18.5344 26.7148 18.8984 26.5648V15.5835C18.5244 15.4304 18.1845 15.2046 17.8982 14.9194C17.612 14.6341 17.3851 14.2949 17.2308 13.9214C17.0764 13.548 16.9976 13.1476 16.9988 12.7435C17.0001 12.3394 17.0815 11.9395 17.2382 11.567L12.7177 7.02449L0.742275 18.9899C-0.257842 19.998 -0.257842 21.6302 0.742275 22.6383L18.2063 40.0984C18.4453 40.3379 18.7291 40.528 19.0416 40.6576C19.3541 40.7873 19.6892 40.8541 20.0275 40.8541C20.3659 40.8541 20.7009 40.7873 21.0134 40.6576C21.3259 40.528 21.6098 40.3379 21.8487 40.0984L39.2308 22.7183C39.4715 22.48 39.6627 22.1964 39.7934 21.8839C39.9241 21.5714 39.9916 21.2361 39.9922 20.8974C39.9927 20.5586 39.9263 20.2231 39.7966 19.9102C39.667 19.5972 39.4767 19.313 39.2368 19.0739Z" fill="white"/>
<path d="M52.9219 26.0295C52.7812 26.2014 52.5885 26.3759 52.3438 26.553C52.099 26.7301 51.8099 26.8889 51.4766 27.0295C51.138 27.1754 50.7604 27.2926 50.3438 27.3811C49.9271 27.4696 49.4792 27.5139 49 27.5139C48.5833 27.5139 48.1901 27.4644 47.8203 27.3655C47.4557 27.2717 47.1198 27.1337 46.8125 26.9514C46.5104 26.7639 46.2344 26.5347 45.9844 26.2639C45.7396 25.9931 45.5312 25.6832 45.3594 25.3342C45.1615 24.9488 45.0104 24.5139 44.9062 24.0295C44.8073 23.5452 44.7578 23.0191 44.7578 22.4514V20.9045C44.7578 20.3629 44.8073 19.8603 44.9062 19.3967C45.0052 18.928 45.1458 18.5035 45.3281 18.1233C45.5 17.7847 45.6979 17.4801 45.9219 17.2092C46.151 16.9384 46.401 16.704 46.6719 16.5061C46.9896 16.2821 47.3359 16.1129 47.7109 15.9983C48.0859 15.8837 48.4818 15.8264 48.8984 15.8264C49.5391 15.8264 50.0964 15.9071 50.5703 16.0686C51.0495 16.2301 51.4531 16.4618 51.7812 16.7639C52.1094 17.0712 52.3646 17.4436 52.5469 17.8811C52.7344 18.3186 52.8568 18.8108 52.9141 19.3577H50.7734C50.737 19.0816 50.6797 18.8368 50.6016 18.6233C50.5286 18.4097 50.4271 18.2301 50.2969 18.0842C50.151 17.9228 49.9661 17.803 49.7422 17.7249C49.5234 17.6415 49.2604 17.5999 48.9531 17.5999C48.7865 17.5999 48.625 17.6259 48.4688 17.678C48.3125 17.7301 48.1667 17.8056 48.0312 17.9045C47.8542 18.04 47.6927 18.217 47.5469 18.4358C47.4062 18.6545 47.2891 18.9124 47.1953 19.2092C47.1224 19.4384 47.0651 19.6936 47.0234 19.9749C46.987 20.2561 46.9688 20.5608 46.9688 20.8889V22.4514C46.9688 22.8629 46.9948 23.2379 47.0469 23.5764C47.1042 23.915 47.1823 24.2144 47.2812 24.4749C47.3438 24.6259 47.4141 24.7665 47.4922 24.8967C47.5755 25.0217 47.6667 25.1337 47.7656 25.2327C47.9323 25.3993 48.125 25.5269 48.3438 25.6155C48.5677 25.6988 48.8203 25.7431 49.1016 25.7483C49.2734 25.7483 49.4427 25.7353 49.6094 25.7092C49.776 25.6832 49.9323 25.6467 50.0781 25.5999C50.224 25.553 50.3516 25.5009 50.4609 25.4436C50.5755 25.3811 50.6615 25.316 50.7188 25.2483L50.7266 23.1858H48.8438V21.5452H52.9141L52.9219 26.0295ZM55.1953 15.9827H61.7734V17.7561H59.5547V25.592H61.7734V27.3577H55.1953V25.592H57.3594V17.7561H55.1953V15.9827ZM72.6797 17.7717H69.1719V27.3577H66.9688V17.7717H63.5078V15.9827H72.6797V17.7717Z" fill="white"/>
</svg>
