<svg width="102" height="41" viewBox="0 0 102 41" fill="none" xmlns="http://www.w3.org/2000/svg">
<path d="M38.5784 5.17756L30.3385 1.17758C30.0332 1.0533 29.708 0.985534 29.3785 0.977577H29.2185C28.6987 0.974638 28.1925 1.14337 27.7785 1.45758L27.4985 1.69757L11.7385 16.0775L4.87857 10.9775C4.56954 10.7411 4.18729 10.6208 3.79857 10.6375C3.41776 10.6332 3.04582 10.7525 2.73858 10.9775L0.538584 12.9775C0.366092 13.1301 0.228552 13.318 0.135357 13.5286C0.0421627 13.7391 -0.0044896 13.9673 -0.0014136 14.1975C-0.00224129 14.4304 0.0453339 14.6608 0.138293 14.8743C0.231252 15.0877 0.367565 15.2795 0.538584 15.4375L6.53856 20.8575L0.538584 26.2975C0.369591 26.4547 0.234809 26.6451 0.142647 26.8567C0.050485 27.0683 0.00292036 27.2967 0.00292036 27.5275C0.00292036 27.7583 0.050485 27.9866 0.142647 28.1983C0.234809 28.4099 0.369591 28.6003 0.538584 28.7575L2.73858 30.7575C3.07031 31.0476 3.4979 31.2044 3.93857 31.1975C4.27706 31.172 4.60213 31.0545 4.87857 30.8575L11.7385 25.6375L27.4985 40.0174C27.9017 40.4329 28.4416 40.6886 29.0185 40.7374H29.3585C29.7003 40.7425 30.0377 40.6599 30.3385 40.4974L38.5784 36.4975C38.9954 36.2979 39.3488 35.9866 39.5995 35.5982C39.8502 35.2099 39.9883 34.7596 39.9984 34.2975V7.43755C39.9971 6.96568 39.8633 6.50367 39.6122 6.10412C39.3612 5.70457 39.003 5.38354 38.5784 5.17756ZM29.9985 29.9175L17.9985 20.8575L29.9985 11.7975V29.9175Z" fill="white"/>
<path d="M47.85 27.3577L44.4125 15.9827H46.8344L48.7641 23.4124L48.9594 24.178L49.1703 23.4045L51.1078 15.9827H53.5297L50.0844 27.3577H47.85ZM60.7094 24.3889C60.7094 24.1858 60.6729 23.9957 60.6 23.8186C60.5323 23.6415 60.4151 23.4749 60.2484 23.3186C60.0766 23.1676 59.8526 23.0295 59.5766 22.9045C59.3057 22.7743 58.9672 22.6545 58.5609 22.5452C57.9307 22.3733 57.376 22.165 56.8969 21.9202C56.4229 21.6754 56.0349 21.4071 55.7328 21.1155C55.4307 20.8238 55.2016 20.5009 55.0453 20.1467C54.8943 19.7926 54.8188 19.4071 54.8188 18.9905C54.8188 18.5113 54.9203 18.0764 55.1234 17.6858C55.3266 17.2952 55.6078 16.9618 55.9672 16.6858C56.3266 16.4097 56.751 16.1988 57.2406 16.053C57.7302 15.9019 58.2615 15.8264 58.8344 15.8264C59.4281 15.8264 59.9698 15.9124 60.4594 16.0842C60.9542 16.2561 61.3787 16.4957 61.7328 16.803C62.087 17.1155 62.363 17.4853 62.5609 17.9124C62.7589 18.3394 62.8578 18.8082 62.8578 19.3186H60.7172C60.7068 19.0634 60.6599 18.829 60.5766 18.6155C60.4984 18.4019 60.3813 18.217 60.225 18.0608C60.0635 17.9097 59.863 17.7926 59.6234 17.7092C59.3891 17.6207 59.113 17.5764 58.7953 17.5764C58.5037 17.5764 58.2432 17.6129 58.0141 17.6858C57.7901 17.7535 57.6 17.8499 57.4438 17.9749C57.2875 18.1051 57.1677 18.2587 57.0844 18.4358C57.0063 18.6077 56.9672 18.7952 56.9672 18.9983C56.9672 19.2118 57.0193 19.4045 57.1234 19.5764C57.2328 19.7483 57.3891 19.9019 57.5922 20.0374C57.7953 20.178 58.0401 20.3056 58.3266 20.4202C58.6182 20.5347 58.9464 20.6415 59.3109 20.7405C59.7016 20.8499 60.074 20.9827 60.4281 21.1389C60.7823 21.2952 61.1078 21.4749 61.4047 21.678C61.8526 22.0113 62.2094 22.3993 62.475 22.842C62.7406 23.2847 62.8734 23.7952 62.8734 24.3733C62.8734 24.8733 62.7719 25.3186 62.5688 25.7092C62.3708 26.0946 62.0948 26.4202 61.7406 26.6858C61.3865 26.9566 60.9646 27.1624 60.475 27.303C59.9854 27.4384 59.4516 27.5061 58.8734 27.5061C58.3057 27.5061 57.7432 27.4228 57.1859 27.2561C56.6339 27.0842 56.1521 26.8342 55.7406 26.5061C55.35 26.1832 55.0401 25.803 54.8109 25.3655C54.587 24.928 54.475 24.415 54.475 23.8264H56.6313C56.6417 24.1702 56.7016 24.4644 56.8109 24.7092C56.9203 24.954 57.074 25.1545 57.2719 25.3108C57.4646 25.467 57.6964 25.5816 57.9672 25.6545C58.2432 25.7275 58.5453 25.7639 58.8734 25.7639C59.1651 25.7639 59.4229 25.7301 59.6469 25.6624C59.876 25.5946 60.0688 25.5009 60.225 25.3811C60.3813 25.2613 60.501 25.1181 60.5844 24.9514C60.6677 24.7795 60.7094 24.592 60.7094 24.3889ZM72.3109 23.7952C72.2745 24.3681 72.1495 24.8837 71.9359 25.342C71.7276 25.8004 71.4464 26.191 71.0922 26.5139C70.738 26.8368 70.3162 27.0868 69.8266 27.2639C69.337 27.4358 68.7953 27.5217 68.2016 27.5217C67.7328 27.5217 67.2979 27.4618 66.8969 27.342C66.501 27.217 66.1443 27.04 65.8266 26.8108C65.5349 26.5972 65.2745 26.3394 65.0453 26.0374C64.8214 25.7353 64.6313 25.4019 64.475 25.0374C64.324 24.6728 64.2068 24.2717 64.1234 23.8342C64.0453 23.3967 64.0063 22.9332 64.0063 22.4436V20.9124C64.0063 20.454 64.0427 20.0191 64.1156 19.6077C64.1885 19.191 64.2979 18.8056 64.4438 18.4514C64.6104 18.0191 64.8292 17.6337 65.1 17.2952C65.3708 16.9566 65.6781 16.6702 66.0219 16.4358C66.3292 16.2379 66.6651 16.0868 67.0297 15.9827C67.3995 15.8733 67.7953 15.8186 68.2172 15.8186C68.8422 15.8186 69.3969 15.9071 69.8813 16.0842C70.3708 16.2613 70.7875 16.5139 71.1313 16.842C71.475 17.1702 71.7458 17.5712 71.9438 18.0452C72.1417 18.5191 72.2667 19.053 72.3188 19.6467H70.1313C70.1104 19.3082 70.0583 19.0113 69.975 18.7561C69.8969 18.5009 69.7823 18.2874 69.6313 18.1155C69.475 17.9488 69.2797 17.8238 69.0453 17.7405C68.8162 17.6519 68.5401 17.6077 68.2172 17.6077C68.0453 17.6077 67.8839 17.6259 67.7328 17.6624C67.587 17.6988 67.4516 17.7535 67.3266 17.8264C67.113 17.9514 66.9307 18.1311 66.7797 18.3655C66.6339 18.5946 66.5167 18.8629 66.4281 19.1702C66.3604 19.4097 66.3109 19.6754 66.2797 19.967C66.2484 20.2535 66.2328 20.5634 66.2328 20.8967V22.4436C66.2328 22.8967 66.2563 23.303 66.3031 23.6624C66.3552 24.0165 66.4333 24.3264 66.5375 24.592C66.6104 24.7743 66.6964 24.9358 66.7953 25.0764C66.8995 25.217 67.0167 25.3342 67.1469 25.428C67.2875 25.5321 67.4438 25.6103 67.6156 25.6624C67.7927 25.7092 67.988 25.7327 68.2016 25.7327C68.488 25.7327 68.7458 25.6962 68.975 25.6233C69.2042 25.5504 69.3995 25.4358 69.5609 25.2795C69.7224 25.1233 69.85 24.9228 69.9438 24.678C70.0375 24.4332 70.0948 24.1389 70.1156 23.7952H72.3109ZM81.9594 22.5061C81.9594 22.9957 81.9151 23.4618 81.8266 23.9045C81.738 24.342 81.6104 24.7483 81.4438 25.1233C81.2667 25.4983 81.0479 25.842 80.7875 26.1545C80.5271 26.467 80.2302 26.7275 79.8969 26.9358C79.5948 27.1181 79.2615 27.2587 78.8969 27.3577C78.5375 27.4618 78.1495 27.5139 77.7328 27.5139C77.2901 27.5139 76.8813 27.4566 76.5063 27.342C76.1313 27.2275 75.7901 27.066 75.4828 26.8577C75.1807 26.6389 74.9099 26.3759 74.6703 26.0686C74.4307 25.7561 74.2302 25.4045 74.0688 25.0139C73.9229 24.6545 73.8109 24.2639 73.7328 23.842C73.6599 23.4202 73.6234 22.9749 73.6234 22.5061V20.8499C73.6234 20.3499 73.6651 19.8759 73.7484 19.428C73.837 18.9801 73.9646 18.566 74.1313 18.1858C74.2927 17.8264 74.488 17.5009 74.7172 17.2092C74.9516 16.9176 75.2198 16.6676 75.5219 16.4592C75.8188 16.2561 76.1521 16.0999 76.5219 15.9905C76.8917 15.8811 77.2927 15.8264 77.725 15.8264C78.1625 15.8264 78.5714 15.8837 78.9516 15.9983C79.337 16.1077 79.6833 16.2665 79.9906 16.4749C80.2979 16.6728 80.5662 16.9124 80.7953 17.1936C81.0297 17.4749 81.2302 17.7847 81.3969 18.1233C81.5792 18.5087 81.7172 18.9306 81.8109 19.3889C81.9099 19.8472 81.9594 20.3342 81.9594 20.8499V22.5061ZM79.7328 20.8342C79.7328 20.5426 79.7172 20.2665 79.6859 20.0061C79.6599 19.7405 79.6156 19.4957 79.5531 19.2717C79.475 18.9905 79.3708 18.7405 79.2406 18.5217C79.1104 18.2978 78.9568 18.1155 78.7797 17.9749C78.6391 17.8707 78.4802 17.79 78.3031 17.7327C78.1313 17.6754 77.9385 17.6467 77.725 17.6467C77.5219 17.6467 77.337 17.6728 77.1703 17.7249C77.0089 17.7769 76.863 17.8525 76.7328 17.9514C76.5557 18.0972 76.4047 18.2795 76.2797 18.4983C76.1599 18.717 76.0662 18.9722 75.9984 19.2639C75.9464 19.4879 75.9073 19.7327 75.8813 19.9983C75.8604 20.2639 75.85 20.5426 75.85 20.8342V22.5061C75.85 22.7821 75.8604 23.0478 75.8813 23.303C75.9021 23.5582 75.9385 23.7952 75.9906 24.0139C76.0479 24.29 76.1313 24.5426 76.2406 24.7717C76.3552 24.9957 76.488 25.178 76.6391 25.3186C76.7797 25.4436 76.9385 25.54 77.1156 25.6077C77.2979 25.6754 77.5037 25.7092 77.7328 25.7092C77.9516 25.7092 78.1521 25.678 78.3344 25.6155C78.5167 25.553 78.6781 25.4618 78.8188 25.342C78.9958 25.1962 79.1443 25.0139 79.2641 24.7952C79.3891 24.5712 79.488 24.3186 79.5609 24.0374C79.6182 23.8186 79.6599 23.579 79.6859 23.3186C79.7172 23.0582 79.7328 22.7874 79.7328 22.5061V20.8342ZM83.5844 27.3577V15.9827H86.5297C87.0557 15.9827 87.5479 16.0478 88.0063 16.178C88.4646 16.303 88.8813 16.4827 89.2563 16.717C89.5844 16.9097 89.876 17.1467 90.1313 17.428C90.3917 17.704 90.6182 18.0061 90.8109 18.3342C91.0349 18.7353 91.2068 19.178 91.3266 19.6624C91.4516 20.1467 91.5141 20.6624 91.5141 21.2092V22.1467C91.5141 22.6728 91.4568 23.1702 91.3422 23.6389C91.2276 24.1077 91.0662 24.5374 90.8578 24.928C90.6599 25.2769 90.4281 25.5999 90.1625 25.8967C89.8969 26.1884 89.6052 26.4332 89.2875 26.6311C88.9177 26.8655 88.5089 27.0452 88.0609 27.1702C87.6182 27.2952 87.1443 27.3577 86.6391 27.3577H83.5844ZM85.7953 17.7639V25.592H86.6391C86.9099 25.592 87.1625 25.5582 87.3969 25.4905C87.6313 25.4228 87.8448 25.3238 88.0375 25.1936C88.2354 25.0582 88.4125 24.8863 88.5688 24.678C88.7302 24.4644 88.8682 24.217 88.9828 23.9358C89.0766 23.691 89.1469 23.4202 89.1938 23.1233C89.2458 22.8212 89.2719 22.4957 89.2719 22.1467V21.1936C89.2719 20.8655 89.2458 20.5556 89.1938 20.2639C89.1469 19.967 89.0766 19.6962 88.9828 19.4514C88.8682 19.1597 88.7172 18.8993 88.5297 18.6702C88.3474 18.441 88.1339 18.2535 87.8891 18.1077C87.7016 17.9983 87.4932 17.915 87.2641 17.8577C87.0401 17.7952 86.7953 17.7639 86.5297 17.7639H85.7953ZM100.241 22.3733H95.5688V25.5842H101.03V27.3577H93.3656V15.9827H101.006V17.7717H95.5688V20.6389H100.241V22.3733Z" fill="white"/>
</svg>
