<svg width="73" height="46" viewBox="0 0 73 46" fill="none" xmlns="http://www.w3.org/2000/svg">
<path d="M-0.00466919 0H39.9953L36.3578 41.0733L19.9531 45.715L3.63798 41.0708L-0.00466919 0ZM32.5486 8.40474L7.44458 8.39962L7.84932 13.3923L27.1359 13.3974L26.6518 18.5719H14.0024L14.4609 23.4723H26.2368L25.54 30.1838L19.9966 31.7157L14.3687 30.171L14.0075 26.1518H9.03792L9.59123 33.496L19.9966 36.7365L30.2304 33.8239L32.5486 8.40474Z" fill="white"/>
<path d="M52.9172 25.7949C52.8808 26.3678 52.7558 26.8835 52.5422 27.3418C52.3339 27.8001 52.0527 28.1908 51.6985 28.5137C51.3443 28.8366 50.9224 29.0866 50.4329 29.2637C49.9433 29.4355 49.4016 29.5215 48.8079 29.5215C48.3391 29.5215 47.9042 29.4616 47.5032 29.3418C47.1073 29.2168 46.7506 29.0397 46.4329 28.8105C46.1412 28.597 45.8808 28.3392 45.6516 28.0371C45.4277 27.735 45.2375 27.4017 45.0813 27.0371C44.9303 26.6725 44.8131 26.2715 44.7297 25.834C44.6516 25.3965 44.6125 24.9329 44.6125 24.4434V22.9121C44.6125 22.4538 44.649 22.0189 44.7219 21.6074C44.7948 21.1908 44.9042 20.8053 45.05 20.4512C45.2167 20.0189 45.4355 19.6335 45.7063 19.2949C45.9771 18.9564 46.2844 18.6699 46.6282 18.4355C46.9355 18.2376 47.2714 18.0866 47.636 17.9824C48.0058 17.873 48.4016 17.8184 48.8235 17.8184C49.4485 17.8184 50.0032 17.9069 50.4875 18.084C50.9771 18.2611 51.3938 18.5137 51.7375 18.8418C52.0813 19.1699 52.3521 19.571 52.55 20.0449C52.748 20.5189 52.873 21.0527 52.925 21.6465H50.7375C50.7167 21.3079 50.6646 21.0111 50.5813 20.7559C50.5032 20.5007 50.3886 20.2871 50.2375 20.1152C50.0813 19.9486 49.886 19.8236 49.6516 19.7402C49.4224 19.6517 49.1464 19.6074 48.8235 19.6074C48.6516 19.6074 48.4902 19.6257 48.3391 19.6621C48.1933 19.6986 48.0579 19.7533 47.9329 19.8262C47.7193 19.9512 47.537 20.1309 47.386 20.3652C47.2402 20.5944 47.123 20.8626 47.0344 21.1699C46.9667 21.4095 46.9172 21.6751 46.886 21.9668C46.8547 22.2533 46.8391 22.5632 46.8391 22.8965V24.4434C46.8391 24.8965 46.8625 25.3027 46.9094 25.6621C46.9615 26.0163 47.0396 26.3262 47.1438 26.5918C47.2167 26.7741 47.3027 26.9355 47.4016 27.0762C47.5058 27.2168 47.623 27.334 47.7532 27.4277C47.8938 27.5319 48.05 27.61 48.2219 27.6621C48.399 27.709 48.5943 27.7324 48.8079 27.7324C49.0943 27.7324 49.3521 27.696 49.5813 27.623C49.8105 27.5501 50.0058 27.4355 50.1672 27.2793C50.3287 27.123 50.4563 26.9225 50.55 26.6777C50.6438 26.4329 50.7011 26.1387 50.7219 25.7949H52.9172ZM60.5344 26.3887C60.5344 26.1855 60.498 25.9954 60.425 25.8184C60.3573 25.6413 60.2402 25.4746 60.0735 25.3184C59.9016 25.1673 59.6777 25.0293 59.4016 24.9043C59.1308 24.7741 58.7922 24.6543 58.386 24.5449C57.7558 24.373 57.2011 24.1647 56.7219 23.9199C56.248 23.6751 55.8599 23.4069 55.5579 23.1152C55.2558 22.8236 55.0266 22.5007 54.8704 22.1465C54.7193 21.7923 54.6438 21.4069 54.6438 20.9902C54.6438 20.5111 54.7454 20.0762 54.9485 19.6855C55.1516 19.2949 55.4329 18.9616 55.7922 18.6855C56.1516 18.4095 56.5761 18.1986 57.0657 18.0527C57.5553 17.9017 58.0865 17.8262 58.6594 17.8262C59.2532 17.8262 59.7948 17.9121 60.2844 18.084C60.7792 18.2559 61.2037 18.4954 61.5579 18.8027C61.912 19.1152 62.1881 19.485 62.386 19.9121C62.5839 20.3392 62.6829 20.8079 62.6829 21.3184H60.5422C60.5318 21.0632 60.4849 20.8288 60.4016 20.6152C60.3235 20.4017 60.2063 20.2168 60.05 20.0605C59.8886 19.9095 59.6881 19.7923 59.4485 19.709C59.2141 19.6204 58.9381 19.5762 58.6204 19.5762C58.3287 19.5762 58.0683 19.6126 57.8391 19.6855C57.6152 19.7533 57.425 19.8496 57.2688 19.9746C57.1125 20.1048 56.9928 20.2585 56.9094 20.4355C56.8313 20.6074 56.7922 20.7949 56.7922 20.998C56.7922 21.2116 56.8443 21.4043 56.9485 21.5762C57.0579 21.748 57.2141 21.9017 57.4172 22.0371C57.6204 22.1777 57.8652 22.3053 58.1516 22.4199C58.4433 22.5345 58.7714 22.6413 59.136 22.7402C59.5266 22.8496 59.899 22.9824 60.2532 23.1387C60.6073 23.2949 60.9329 23.4746 61.2297 23.6777C61.6777 24.0111 62.0344 24.3991 62.3 24.8418C62.5657 25.2845 62.6985 25.7949 62.6985 26.373C62.6985 26.873 62.5969 27.3184 62.3938 27.709C62.1959 28.0944 61.9198 28.4199 61.5657 28.6855C61.2115 28.9564 60.7896 29.1621 60.3 29.3027C59.8105 29.4382 59.2766 29.5059 58.6985 29.5059C58.1308 29.5059 57.5683 29.4225 57.011 29.2559C56.4589 29.084 55.9771 28.834 55.5657 28.5059C55.175 28.1829 54.8652 27.8027 54.636 27.3652C54.412 26.9277 54.3 26.4147 54.3 25.8262H56.4563C56.4667 26.1699 56.5266 26.4642 56.636 26.709C56.7454 26.9538 56.899 27.1543 57.0969 27.3105C57.2896 27.4668 57.5214 27.5814 57.7922 27.6543C58.0683 27.7272 58.3704 27.7637 58.6985 27.7637C58.9902 27.7637 59.248 27.7298 59.4719 27.6621C59.7011 27.5944 59.8938 27.5007 60.05 27.3809C60.2063 27.2611 60.3261 27.1178 60.4094 26.9512C60.4928 26.7793 60.5344 26.5918 60.5344 26.3887ZM70.1438 26.3887C70.1438 26.1855 70.1073 25.9954 70.0344 25.8184C69.9667 25.6413 69.8495 25.4746 69.6829 25.3184C69.511 25.1673 69.287 25.0293 69.011 24.9043C68.7402 24.7741 68.4016 24.6543 67.9954 24.5449C67.3652 24.373 66.8105 24.1647 66.3313 23.9199C65.8573 23.6751 65.4693 23.4069 65.1672 23.1152C64.8652 22.8236 64.636 22.5007 64.4797 22.1465C64.3287 21.7923 64.2532 21.4069 64.2532 20.9902C64.2532 20.5111 64.3547 20.0762 64.5579 19.6855C64.761 19.2949 65.0422 18.9616 65.4016 18.6855C65.761 18.4095 66.1855 18.1986 66.675 18.0527C67.1646 17.9017 67.6959 17.8262 68.2688 17.8262C68.8625 17.8262 69.4042 17.9121 69.8938 18.084C70.3886 18.2559 70.8131 18.4954 71.1672 18.8027C71.5214 19.1152 71.7974 19.485 71.9954 19.9121C72.1933 20.3392 72.2922 20.8079 72.2922 21.3184H70.1516C70.1412 21.0632 70.0943 20.8288 70.011 20.6152C69.9329 20.4017 69.8157 20.2168 69.6594 20.0605C69.498 19.9095 69.2974 19.7923 69.0579 19.709C68.8235 19.6204 68.5474 19.5762 68.2297 19.5762C67.9381 19.5762 67.6777 19.6126 67.4485 19.6855C67.2245 19.7533 67.0344 19.8496 66.8782 19.9746C66.7219 20.1048 66.6021 20.2585 66.5188 20.4355C66.4407 20.6074 66.4016 20.7949 66.4016 20.998C66.4016 21.2116 66.4537 21.4043 66.5579 21.5762C66.6672 21.748 66.8235 21.9017 67.0266 22.0371C67.2297 22.1777 67.4745 22.3053 67.761 22.4199C68.0527 22.5345 68.3808 22.6413 68.7454 22.7402C69.136 22.8496 69.5084 22.9824 69.8625 23.1387C70.2167 23.2949 70.5422 23.4746 70.8391 23.6777C71.287 24.0111 71.6438 24.3991 71.9094 24.8418C72.175 25.2845 72.3079 25.7949 72.3079 26.373C72.3079 26.873 72.2063 27.3184 72.0032 27.709C71.8053 28.0944 71.5292 28.4199 71.175 28.6855C70.8209 28.9564 70.399 29.1621 69.9094 29.3027C69.4198 29.4382 68.886 29.5059 68.3079 29.5059C67.7402 29.5059 67.1777 29.4225 66.6204 29.2559C66.0683 29.084 65.5865 28.834 65.175 28.5059C64.7844 28.1829 64.4745 27.8027 64.2454 27.3652C64.0214 26.9277 63.9094 26.4147 63.9094 25.8262H66.0657C66.0761 26.1699 66.136 26.4642 66.2454 26.709C66.3547 26.9538 66.5084 27.1543 66.7063 27.3105C66.899 27.4668 67.1308 27.5814 67.4016 27.6543C67.6777 27.7272 67.9797 27.7637 68.3079 27.7637C68.5995 27.7637 68.8573 27.7298 69.0813 27.6621C69.3105 27.5944 69.5032 27.5007 69.6594 27.3809C69.8157 27.2611 69.9355 27.1178 70.0188 26.9512C70.1021 26.7793 70.1438 26.5918 70.1438 26.3887Z" fill="white"/>
</svg>
