<svg width="83" height="46" viewBox="0 0 83 46" fill="none" xmlns="http://www.w3.org/2000/svg">
<path d="M22.4677 15.3234C24.4259 15.2646 26.2842 14.4454 27.6485 13.0396C29.0128 11.6337 29.7759 9.75163 29.7759 7.79256C29.7759 5.8335 29.0128 3.95146 27.6485 2.54557C26.2842 1.13968 24.4259 0.320487 22.4677 0.261719H7.40374C5.44555 0.320487 3.58726 1.13968 2.22292 2.54557C0.858591 3.95146 0.095515 5.8335 0.095515 7.79256C0.095515 9.75163 0.858591 11.6337 2.22292 13.0396C3.58726 14.4454 5.44555 15.2646 7.40374 15.3234C5.42843 15.3576 3.5456 16.1663 2.16079 17.5753C0.775976 18.9844 0 20.8809 0 22.8565C0 24.8321 0.775976 26.7287 2.16079 28.1377C3.5456 29.5467 5.42843 30.3554 7.40374 30.3896C5.43808 30.4378 3.56913 31.2525 2.19592 32.6597C0.822711 34.067 0.0540475 35.9553 0.0540475 37.9216C0.0540475 39.8878 0.822711 41.7762 2.19592 43.1834C3.56913 44.5907 5.43808 45.4054 7.40374 45.4536C9.40137 45.4524 11.3168 44.6581 12.7291 43.2454C14.1414 41.8326 14.9351 39.917 14.9357 37.9193V15.3234H22.4677Z" fill="white"/>
<path d="M22.4681 30.3874C26.6279 30.3874 30.0001 27.0153 30.0001 22.8555C30.0001 18.6957 26.6279 15.3235 22.4681 15.3235C18.3083 15.3235 14.9361 18.6957 14.9361 22.8555C14.9361 27.0153 18.3083 30.3874 22.4681 30.3874Z" fill="white"/>
<path d="M42.7188 24.6467H37.8438V29.3577H35.6406V17.9827H43.3281V19.7717H37.8438V22.8655H42.7188V24.6467ZM45.5938 17.9827H52.1719V19.7561H49.9531V27.592H52.1719V29.3577H45.5938V27.592H47.7578V19.7561H45.5938V17.9827ZM62.5391 28.0295C62.3984 28.2014 62.2057 28.3759 61.9609 28.553C61.7161 28.7301 61.4271 28.8889 61.0938 29.0295C60.7552 29.1754 60.3776 29.2926 59.9609 29.3811C59.5443 29.4696 59.0964 29.5139 58.6172 29.5139C58.2005 29.5139 57.8073 29.4644 57.4375 29.3655C57.0729 29.2717 56.737 29.1337 56.4297 28.9514C56.1276 28.7639 55.8516 28.5347 55.6016 28.2639C55.3568 27.9931 55.1484 27.6832 54.9766 27.3342C54.7786 26.9488 54.6276 26.5139 54.5234 26.0295C54.4245 25.5452 54.375 25.0191 54.375 24.4514V22.9045C54.375 22.3629 54.4245 21.8603 54.5234 21.3967C54.6224 20.928 54.763 20.5035 54.9453 20.1233C55.1172 19.7847 55.3151 19.4801 55.5391 19.2092C55.7682 18.9384 56.0182 18.704 56.2891 18.5061C56.6068 18.2821 56.9531 18.1129 57.3281 17.9983C57.7031 17.8837 58.099 17.8264 58.5156 17.8264C59.1562 17.8264 59.7135 17.9071 60.1875 18.0686C60.6667 18.2301 61.0703 18.4618 61.3984 18.7639C61.7266 19.0712 61.9818 19.4436 62.1641 19.8811C62.3516 20.3186 62.474 20.8108 62.5312 21.3577H60.3906C60.3542 21.0816 60.2969 20.8368 60.2188 20.6233C60.1458 20.4097 60.0443 20.2301 59.9141 20.0842C59.7682 19.9228 59.5833 19.803 59.3594 19.7249C59.1406 19.6415 58.8776 19.5999 58.5703 19.5999C58.4036 19.5999 58.2422 19.6259 58.0859 19.678C57.9297 19.7301 57.7839 19.8056 57.6484 19.9045C57.4714 20.04 57.3099 20.217 57.1641 20.4358C57.0234 20.6545 56.9062 20.9124 56.8125 21.2092C56.7396 21.4384 56.6823 21.6936 56.6406 21.9749C56.6042 22.2561 56.5859 22.5608 56.5859 22.8889V24.4514C56.5859 24.8629 56.612 25.2379 56.6641 25.5764C56.7214 25.915 56.7995 26.2144 56.8984 26.4749C56.9609 26.6259 57.0312 26.7665 57.1094 26.8967C57.1927 27.0217 57.2839 27.1337 57.3828 27.2327C57.5495 27.3993 57.7422 27.5269 57.9609 27.6155C58.1849 27.6988 58.4375 27.7431 58.7188 27.7483C58.8906 27.7483 59.0599 27.7353 59.2266 27.7092C59.3932 27.6832 59.5495 27.6467 59.6953 27.5999C59.8411 27.553 59.9688 27.5009 60.0781 27.4436C60.1927 27.3811 60.2786 27.316 60.3359 27.2483L60.3438 25.1858H58.4609V23.5452H62.5312L62.5391 28.0295ZM67.0234 17.9827L68.1016 22.2561L69.3281 17.9827H72.0547V29.3577H70.0391V25.9905L70.1328 20.6702L68.6406 25.6077H67.5547L66.2188 20.8811L66.3125 25.9905V29.3577H64.2969V17.9827H67.0234ZM79.5312 26.9827H76.1172L75.4453 29.3577H73.1328L76.8594 17.9827H78.8516L82.5078 29.3577H80.1953L79.5312 26.9827ZM76.6562 25.1155H79.0156L77.8516 20.928L76.6562 25.1155Z" fill="white"/>
</svg>
