<svg width="103" height="41" viewBox="0 0 103 41" fill="none" xmlns="http://www.w3.org/2000/svg">
<path fill-rule="evenodd" clip-rule="evenodd" d="M20.4969 0.857422C9.17051 0.857422 -0.00939941 10.0373 -0.00939941 21.3637C-0.00939941 30.4223 5.86451 38.1096 14.0144 40.8234C15.0403 41.0085 15.4104 40.3773 15.4104 39.8345C15.4104 39.3473 15.3939 38.0561 15.3878 36.3476C9.68245 37.5853 8.47765 33.5967 8.47765 33.5967C7.54835 31.2282 6.20169 30.597 6.20169 30.597C4.34104 29.3244 6.34355 29.3532 6.34355 29.3532C8.40364 29.4971 9.48302 31.4667 9.48302 31.4667C11.3128 34.6 14.2858 33.6954 15.4494 33.1711C15.6365 31.845 16.1711 30.9404 16.755 30.4285C12.2031 29.9124 7.41677 28.1525 7.41677 20.2925C7.41677 18.0577 8.21654 16.2238 9.52208 14.7928C9.31443 14.2726 8.60512 12.1858 9.72562 9.36503C9.72562 9.36503 11.4465 8.81197 15.3631 11.4642C17.0358 11.0091 18.7613 10.7769 20.4948 10.7734C22.2284 10.7762 23.9539 11.0085 25.6265 11.4642C29.5452 8.80992 31.264 9.36503 31.264 9.36503C32.3845 12.1858 31.6813 14.2726 31.4675 14.7928C32.7833 16.2238 33.5728 18.0556 33.5728 20.2925C33.5728 28.1731 28.7824 29.9042 24.2141 30.412C24.9439 31.0452 25.6018 32.2953 25.6018 34.2073C25.6018 36.95 25.5772 39.1622 25.5772 39.8345C25.5772 40.3835 25.9431 41.0208 26.9896 40.8193C35.1354 38.1013 41.0031 30.4202 41.0031 21.3637C41.0031 10.0373 31.8232 0.857422 20.4969 0.857422Z" fill="white"/>
<path d="M53.8469 26.0293C53.7062 26.2012 53.5135 26.3757 53.2687 26.5527C53.0239 26.7298 52.7349 26.8887 52.4016 27.0293C52.063 27.1751 51.6854 27.2923 51.2687 27.3809C50.8521 27.4694 50.4042 27.5137 49.925 27.5137C49.5083 27.5137 49.1151 27.4642 48.7453 27.3652C48.3807 27.2715 48.0448 27.1335 47.7375 26.9512C47.4354 26.7637 47.1594 26.5345 46.9094 26.2637C46.6646 25.9928 46.4562 25.6829 46.2844 25.334C46.0864 24.9486 45.9354 24.5137 45.8312 24.0293C45.7323 23.5449 45.6828 23.0189 45.6828 22.4512V20.9043C45.6828 20.3626 45.7323 19.86 45.8312 19.3965C45.9302 18.9277 46.0708 18.5033 46.2531 18.123C46.425 17.7845 46.6229 17.4798 46.8469 17.209C47.076 16.9382 47.326 16.7038 47.5969 16.5059C47.9146 16.2819 48.2609 16.1126 48.6359 15.998C49.0109 15.8835 49.4068 15.8262 49.8234 15.8262C50.4641 15.8262 51.0213 15.9069 51.4953 16.0684C51.9745 16.2298 52.3781 16.4616 52.7062 16.7637C53.0344 17.071 53.2896 17.4434 53.4719 17.8809C53.6594 18.3184 53.7818 18.8105 53.8391 19.3574H51.6984C51.662 19.0814 51.6047 18.8366 51.5266 18.623C51.4536 18.4095 51.3521 18.2298 51.2219 18.084C51.076 17.9225 50.8911 17.8027 50.6672 17.7246C50.4484 17.6413 50.1854 17.5996 49.8781 17.5996C49.7114 17.5996 49.55 17.6257 49.3937 17.6777C49.2375 17.7298 49.0917 17.8053 48.9562 17.9043C48.7792 18.0397 48.6177 18.2168 48.4719 18.4355C48.3312 18.6543 48.2141 18.9121 48.1203 19.209C48.0474 19.4382 47.9901 19.6934 47.9484 19.9746C47.912 20.2559 47.8937 20.5605 47.8937 20.8887V22.4512C47.8937 22.8626 47.9198 23.2376 47.9719 23.5762C48.0292 23.9147 48.1073 24.2142 48.2062 24.4746C48.2687 24.6257 48.3391 24.7663 48.4172 24.8965C48.5005 25.0215 48.5917 25.1335 48.6906 25.2324C48.8573 25.3991 49.05 25.5267 49.2687 25.6152C49.4927 25.6986 49.7453 25.7428 50.0266 25.748C50.1984 25.748 50.3677 25.735 50.5344 25.709C50.701 25.6829 50.8573 25.6465 51.0031 25.5996C51.1489 25.5527 51.2766 25.5007 51.3859 25.4434C51.5005 25.3809 51.5864 25.3158 51.6437 25.248L51.6516 23.1855H49.7687V21.5449H53.8391L53.8469 26.0293ZM56.2922 18.9043H60.8937V25.5918H63.1828V27.3574H56.2922V25.5918H58.6984V20.6777H56.2922V18.9043ZM58.5422 16.7402C58.5422 16.5736 58.5708 16.4199 58.6281 16.2793C58.6906 16.1335 58.7766 16.0085 58.8859 15.9043C58.9953 15.8053 59.1255 15.7272 59.2766 15.6699C59.4328 15.6126 59.6047 15.584 59.7922 15.584C60.1776 15.584 60.4823 15.6934 60.7062 15.9121C60.9354 16.1257 61.05 16.4017 61.05 16.7402C61.05 17.0788 60.9354 17.3574 60.7062 17.5762C60.4823 17.7897 60.1776 17.8965 59.7922 17.8965C59.6047 17.8965 59.4328 17.8678 59.2766 17.8105C59.1255 17.7533 58.9953 17.6725 58.8859 17.5684C58.7766 17.4694 58.6906 17.3496 58.6281 17.209C58.5708 17.0632 58.5422 16.9069 58.5422 16.7402ZM69.3078 16.834V18.9043H72.4641V20.5059H69.3078V24.1387C69.3078 24.446 69.3417 24.7038 69.4094 24.9121C69.4823 25.1152 69.5838 25.2767 69.7141 25.3965C69.8443 25.5215 70.0005 25.61 70.1828 25.6621C70.3703 25.7142 70.5786 25.7402 70.8078 25.7402C70.9745 25.7402 71.1437 25.7324 71.3156 25.7168C71.4927 25.7012 71.662 25.6803 71.8234 25.6543C71.9797 25.6335 72.1255 25.61 72.2609 25.584C72.4016 25.5579 72.5213 25.5319 72.6203 25.5059L72.8312 26.998C72.6802 27.0866 72.5031 27.1647 72.3 27.2324C72.0969 27.2949 71.8807 27.347 71.6516 27.3887C71.4224 27.4303 71.1828 27.4616 70.9328 27.4824C70.688 27.5085 70.4458 27.5215 70.2062 27.5215C69.7427 27.5215 69.3208 27.4616 68.9406 27.3418C68.5656 27.2168 68.2453 27.0241 67.9797 26.7637C67.7088 26.5085 67.5005 26.1829 67.3547 25.7871C67.2088 25.3861 67.1359 24.9069 67.1359 24.3496V20.5059H65.2062V18.9043H67.1359V16.834H69.3078ZM82.3625 27.3574H80.1906V22.4277H76.9719V27.3574H74.7922V15.9824H76.9719V20.6465H80.1906V15.9824H82.3625V27.3574ZM90.0578 27.3574L89.9328 26.1699C89.6463 26.5918 89.3 26.9225 88.8937 27.1621C88.4927 27.4017 88.0526 27.5215 87.5734 27.5215C87.1359 27.5215 86.7349 27.4538 86.3703 27.3184C86.0057 27.1829 85.6932 26.9668 85.4328 26.6699C85.1724 26.3783 84.9693 26.0059 84.8234 25.5527C84.6828 25.0944 84.6125 24.5449 84.6125 23.9043V18.9043H86.7844V23.9199C86.7844 24.2637 86.8078 24.5527 86.8547 24.7871C86.9068 25.0215 86.9875 25.209 87.0969 25.3496C87.2062 25.4954 87.3495 25.5996 87.5266 25.6621C87.7036 25.7246 87.9198 25.7559 88.175 25.7559C88.4042 25.7559 88.6099 25.7324 88.7922 25.6855C88.9797 25.6387 89.1437 25.571 89.2844 25.4824C89.4042 25.4043 89.5109 25.3105 89.6047 25.2012C89.6984 25.0918 89.7792 24.9694 89.8469 24.834V18.9043H92.0266V27.3574H90.0578ZM101.769 23.2168C101.769 23.623 101.74 24.0085 101.683 24.373C101.626 24.7324 101.542 25.0658 101.433 25.373C101.313 25.7116 101.154 26.0189 100.956 26.2949C100.764 26.571 100.534 26.8001 100.269 26.9824C100.029 27.1543 99.7583 27.2845 99.4562 27.373C99.1594 27.4668 98.8312 27.5137 98.4719 27.5137C98.1437 27.5137 97.8443 27.472 97.5734 27.3887C97.3078 27.3105 97.0682 27.1934 96.8547 27.0371C96.7401 26.959 96.6333 26.873 96.5344 26.7793C96.4354 26.6803 96.3417 26.5736 96.2531 26.459L96.1516 27.3574H94.1984V15.3574H96.3703V19.6699C96.4745 19.5501 96.5864 19.4408 96.7062 19.3418C96.826 19.2376 96.9536 19.1491 97.0891 19.0762C97.2818 18.9668 97.4901 18.8861 97.7141 18.834C97.9432 18.7767 98.1906 18.748 98.4562 18.748C98.8208 18.748 99.1542 18.7949 99.4562 18.8887C99.7635 18.9824 100.037 19.1178 100.277 19.2949C100.469 19.4303 100.644 19.5944 100.8 19.7871C100.956 19.9746 101.094 20.1803 101.214 20.4043C101.402 20.7637 101.54 21.1673 101.628 21.6152C101.722 22.0632 101.769 22.5423 101.769 23.0527V23.2168ZM99.5969 23.0527C99.5969 22.8288 99.5864 22.6126 99.5656 22.4043C99.5448 22.196 99.5109 22.0007 99.4641 21.8184C99.4068 21.6048 99.3312 21.4147 99.2375 21.248C99.1489 21.0762 99.0135 20.9199 98.8312 20.7793C98.7114 20.6908 98.576 20.6257 98.425 20.584C98.2739 20.5371 98.1021 20.5137 97.9094 20.5137C97.6489 20.5137 97.4198 20.5501 97.2219 20.623C97.0239 20.696 96.8547 20.8027 96.7141 20.9434C96.6463 21.0111 96.5838 21.0892 96.5266 21.1777C96.4693 21.2611 96.4172 21.3522 96.3703 21.4512V24.8184C96.4328 24.9486 96.5031 25.0684 96.5812 25.1777C96.6646 25.2819 96.7609 25.373 96.8703 25.4512C97.0005 25.5501 97.1516 25.6257 97.3234 25.6777C97.5005 25.7298 97.701 25.7559 97.925 25.7559C98.1177 25.7559 98.2922 25.7324 98.4484 25.6855C98.6047 25.6387 98.7401 25.5736 98.8547 25.4902C99.0161 25.3757 99.1463 25.2272 99.2453 25.0449C99.3495 24.8574 99.4276 24.6465 99.4797 24.4121C99.5213 24.2402 99.55 24.0527 99.5656 23.8496C99.5864 23.6465 99.5969 23.4355 99.5969 23.2168V23.0527Z" fill="white"/>
</svg>
