<svg width="83" height="46" viewBox="0 0 83 46" fill="none" xmlns="http://www.w3.org/2000/svg">
<path d="M-0.00311279 0.000244141H39.9969L36.3577 41.0709L19.9524 45.7145L3.64111 41.0709L-0.00311279 0.000244141ZM13.3887 18.5698L12.9488 13.3946L32.1057 13.3997L32.5457 8.40764L7.44555 8.40256L8.77303 23.6559H26.1549L25.537 30.1814L19.9956 31.7124L14.3653 30.1738L14.0067 26.1558H9.03751L9.66565 34.0978L19.9956 36.8596L30.2391 34.113L31.6581 18.5723L13.3887 18.5698Z" fill="white"/>
<path d="M52.5281 29.3574H50.3563V24.4277H47.1375V29.3574H44.9578V17.9824H47.1375V22.6465H50.3563V17.9824H52.5281V29.3574ZM62.9891 19.7715H59.4813V29.3574H57.2781V19.7715H53.8172V17.9824H62.9891V19.7715ZM66.9344 17.9824L68.0125 22.2559L69.2391 17.9824H71.9656V29.3574H69.95V25.9902L70.0438 20.6699L68.5516 25.6074H67.4656L66.1297 20.8809L66.2234 25.9902V29.3574H64.2078V17.9824H66.9344ZM76.2 27.584H81.5281V29.3574H73.9969V17.9824H76.2V27.584Z" fill="white"/>
</svg>
