<svg width="141" height="41" viewBox="0 0 141 41" fill="none" xmlns="http://www.w3.org/2000/svg">
<path d="M-0.00622559 2.85742C-0.00622559 1.75285 0.889205 0.857422 1.99377 0.857422H37.9938C39.0983 0.857422 39.9938 1.75285 39.9938 2.85742V38.8574C39.9938 39.962 39.0983 40.8574 37.9938 40.8574H1.99377C0.889206 40.8574 -0.00622559 39.962 -0.00622559 38.8574V2.85742ZM36.6789 31.2639C36.6879 31.2769 36.708 31.2687 36.7053 31.2531C36.3966 29.4569 35.1945 27.9428 31.7116 26.5285C30.5454 25.9814 29.2567 25.5949 28.7811 24.7637C28.7318 24.6776 28.7 24.5828 28.6758 24.4865C28.5596 24.0253 28.5493 23.7522 28.6382 23.4552C28.8893 22.3796 30.1649 22.0574 31.1649 22.3552C31.3015 22.3972 31.4359 22.4523 31.5664 22.5207C32.4294 22.973 33.6958 23.2594 34.5166 22.7345C35.2707 22.2524 35.3733 21.3125 34.7404 20.6796C33.6893 19.5063 32.2893 18.9063 30.016 18.9574L28.8427 19.1063C27.716 19.3819 26.6404 19.9841 25.9916 20.7819C24.0916 22.933 24.6404 26.6819 26.9404 28.2352C29.2138 29.9352 32.5427 30.3085 32.9671 31.9085C33.3671 33.8596 31.5182 34.4841 29.6893 34.2596C28.9585 34.0959 28.4032 33.8232 27.9166 33.4088C27.1465 32.7529 26.0811 32.4257 25.2039 32.9295C24.3572 33.4158 24.0311 34.4631 24.679 35.1936C24.7982 35.328 24.9262 35.4711 25.0649 35.633C27.9649 38.5574 35.216 38.4085 36.516 33.9574C36.562 33.8107 36.906 32.8131 36.6518 31.2755C36.6492 31.2598 36.6698 31.2509 36.6789 31.2639ZM21.7382 19.3352C21.7418 19.2848 21.7019 19.2419 21.6513 19.2419H19.8047C18.807 19.2419 17.9983 20.0507 17.9968 21.0484C17.993 23.6704 17.9827 26.2858 17.9827 28.9174C17.9827 30.9708 18.0871 32.8552 17.7516 33.4352C17.2404 34.5051 15.9738 34.4515 15.2834 34.2739C15.1873 34.2492 15.095 34.2121 15.0083 34.164C14.4339 33.8453 14.1181 33.4126 13.756 32.8085C13.6244 32.5902 13.43 32.555 13.2131 32.6888L12.0418 33.4114C11.1688 33.95 10.8147 35.0954 11.4946 35.8635C11.8509 36.266 12.2579 36.6134 12.7138 36.8863C14.1382 37.7374 16.0516 38.013 18.056 37.5641C19.3627 37.1863 20.4893 36.4108 21.0738 35.2108C21.9271 33.6619 21.7449 31.7596 21.7382 29.6352C21.756 26.2108 21.7382 22.7841 21.7382 19.3352Z" fill="white"/>
<path d="M50.8375 15.4824H53.0328L53.0406 23.3652C53.0354 23.9069 52.9313 24.4017 52.7281 24.8496C52.5302 25.2923 52.2568 25.6751 51.9078 25.998C51.5589 26.321 51.1474 26.571 50.6735 26.748C50.2047 26.9251 49.6995 27.0137 49.1578 27.0137C48.5849 27.0137 48.0641 26.9408 47.5953 26.7949C47.1266 26.6491 46.7255 26.4303 46.3922 26.1387C46.0537 25.8522 45.7906 25.4902 45.6031 25.0527C45.4156 24.6152 45.3193 24.1022 45.3141 23.5137H47.5172C47.5172 23.7845 47.5433 24.0215 47.5953 24.2246C47.6474 24.4277 47.7255 24.5996 47.8297 24.7402C47.9651 24.9121 48.1422 25.0397 48.361 25.123C48.5797 25.2064 48.8453 25.248 49.1578 25.248C49.4078 25.248 49.637 25.2012 49.8453 25.1074C50.0537 25.0085 50.2308 24.8757 50.3766 24.709C50.5224 24.5423 50.6344 24.3444 50.7125 24.1152C50.7959 23.8809 50.8375 23.6309 50.8375 23.3652V15.4824ZM60.4391 26.8574C60.387 26.7533 60.3427 26.6335 60.3063 26.498C60.2698 26.3626 60.2386 26.2194 60.2125 26.0684C60.0927 26.1986 59.9547 26.321 59.7985 26.4355C59.6422 26.5501 59.4703 26.6491 59.2828 26.7324C59.0901 26.821 58.8792 26.8887 58.65 26.9355C58.4209 26.9876 58.1735 27.0137 57.9078 27.0137C57.4755 27.0137 57.0771 26.9512 56.7125 26.8262C56.3531 26.7012 56.0433 26.5267 55.7828 26.3027C55.5224 26.0788 55.3193 25.8132 55.1735 25.5059C55.0276 25.1934 54.9547 24.8548 54.9547 24.4902C54.9547 24.0215 55.0459 23.6074 55.2281 23.248C55.4104 22.8835 55.6839 22.584 56.0485 22.3496C56.3766 22.1361 56.7802 21.9746 57.2594 21.8652C57.7438 21.7507 58.2985 21.6934 58.9235 21.6934H60.1344V21.1934C60.1344 20.9954 60.1031 20.8184 60.0406 20.6621C59.9781 20.5007 59.8844 20.3626 59.7594 20.248C59.6292 20.1283 59.4651 20.0371 59.2672 19.9746C59.0745 19.9069 58.8479 19.873 58.5875 19.873C58.3584 19.873 58.1604 19.9017 57.9938 19.959C57.8271 20.0111 57.6917 20.0866 57.5875 20.1855C57.4938 20.2741 57.4235 20.3809 57.3766 20.5059C57.3349 20.6309 57.3141 20.7689 57.3141 20.9199H55.1422C55.1422 20.5605 55.2203 20.2194 55.3766 19.8965C55.538 19.5736 55.7724 19.2897 56.0797 19.0449C56.3818 18.8001 56.7516 18.6074 57.1891 18.4668C57.6318 18.321 58.137 18.248 58.7047 18.248C59.2151 18.248 59.6891 18.3105 60.1266 18.4355C60.5693 18.5605 60.9521 18.7454 61.275 18.9902C61.5979 19.235 61.8505 19.5449 62.0328 19.9199C62.2151 20.2897 62.3063 20.7194 62.3063 21.209V24.834C62.3063 25.2871 62.3349 25.6621 62.3922 25.959C62.4495 26.2559 62.5328 26.5111 62.6422 26.7246V26.8574H60.4391ZM58.3688 25.334C58.5875 25.334 58.7906 25.3079 58.9781 25.2559C59.1656 25.2038 59.3349 25.1361 59.486 25.0527C59.637 24.9694 59.7672 24.8757 59.8766 24.7715C59.986 24.6621 60.0719 24.5527 60.1344 24.4434V22.9902H59.025C58.6865 22.9902 58.3974 23.0241 58.1578 23.0918C57.9183 23.1543 57.7229 23.2428 57.5719 23.3574C57.4209 23.4772 57.3089 23.6204 57.236 23.7871C57.163 23.9486 57.1266 24.1257 57.1266 24.3184C57.1266 24.4694 57.1526 24.61 57.2047 24.7402C57.262 24.8652 57.3427 24.972 57.4469 25.0605C57.5511 25.1439 57.6787 25.2116 57.8297 25.2637C57.986 25.3105 58.1656 25.334 58.3688 25.334ZM67.4547 26.8574L64.2281 18.4043H66.4938L68.3531 24.3652L68.4703 24.959L68.5875 24.3652L70.4391 18.4043H72.7047L69.4938 26.8574H67.4547ZM79.6578 26.8574C79.6058 26.7533 79.5615 26.6335 79.525 26.498C79.4886 26.3626 79.4573 26.2194 79.4313 26.0684C79.3115 26.1986 79.1735 26.321 79.0172 26.4355C78.861 26.5501 78.6891 26.6491 78.5016 26.7324C78.3089 26.821 78.0979 26.8887 77.8688 26.9355C77.6396 26.9876 77.3922 27.0137 77.1266 27.0137C76.6943 27.0137 76.2959 26.9512 75.9313 26.8262C75.5719 26.7012 75.262 26.5267 75.0016 26.3027C74.7412 26.0788 74.538 25.8132 74.3922 25.5059C74.2464 25.1934 74.1735 24.8548 74.1735 24.4902C74.1735 24.0215 74.2646 23.6074 74.4469 23.248C74.6292 22.8835 74.9026 22.584 75.2672 22.3496C75.5953 22.1361 75.999 21.9746 76.4781 21.8652C76.9625 21.7507 77.5172 21.6934 78.1422 21.6934H79.3531V21.1934C79.3531 20.9954 79.3219 20.8184 79.2594 20.6621C79.1969 20.5007 79.1031 20.3626 78.9781 20.248C78.8479 20.1283 78.6839 20.0371 78.486 19.9746C78.2933 19.9069 78.0667 19.873 77.8063 19.873C77.5771 19.873 77.3792 19.9017 77.2125 19.959C77.0459 20.0111 76.9104 20.0866 76.8063 20.1855C76.7125 20.2741 76.6422 20.3809 76.5953 20.5059C76.5537 20.6309 76.5328 20.7689 76.5328 20.9199H74.361C74.361 20.5605 74.4391 20.2194 74.5953 19.8965C74.7568 19.5736 74.9912 19.2897 75.2985 19.0449C75.6005 18.8001 75.9703 18.6074 76.4078 18.4668C76.8505 18.321 77.3558 18.248 77.9235 18.248C78.4339 18.248 78.9078 18.3105 79.3453 18.4355C79.788 18.5605 80.1709 18.7454 80.4938 18.9902C80.8167 19.235 81.0693 19.5449 81.2516 19.9199C81.4339 20.2897 81.525 20.7194 81.525 21.209V24.834C81.525 25.2871 81.5537 25.6621 81.611 25.959C81.6683 26.2559 81.7516 26.5111 81.861 26.7246V26.8574H79.6578ZM77.5875 25.334C77.8063 25.334 78.0094 25.3079 78.1969 25.2559C78.3844 25.2038 78.5537 25.1361 78.7047 25.0527C78.8558 24.9694 78.986 24.8757 79.0953 24.7715C79.2047 24.6621 79.2906 24.5527 79.3531 24.4434V22.9902H78.2438C77.9052 22.9902 77.6162 23.0241 77.3766 23.0918C77.137 23.1543 76.9417 23.2428 76.7906 23.3574C76.6396 23.4772 76.5276 23.6204 76.4547 23.7871C76.3818 23.9486 76.3453 24.1257 76.3453 24.3184C76.3453 24.4694 76.3714 24.61 76.4235 24.7402C76.4808 24.8652 76.5615 24.972 76.6656 25.0605C76.7698 25.1439 76.8974 25.2116 77.0485 25.2637C77.2047 25.3105 77.3844 25.334 77.5875 25.334ZM89.8141 23.8887C89.8141 23.6855 89.7776 23.4954 89.7047 23.3184C89.637 23.1413 89.5198 22.9746 89.3531 22.8184C89.1813 22.6673 88.9573 22.5293 88.6813 22.4043C88.4104 22.2741 88.0719 22.1543 87.6656 22.0449C87.0354 21.873 86.4808 21.6647 86.0016 21.4199C85.5276 21.1751 85.1396 20.9069 84.8375 20.6152C84.5354 20.3236 84.3063 20.0007 84.15 19.6465C83.999 19.2923 83.9235 18.9069 83.9235 18.4902C83.9235 18.0111 84.025 17.5762 84.2281 17.1855C84.4313 16.7949 84.7125 16.4616 85.0719 16.1855C85.4313 15.9095 85.8558 15.6986 86.3453 15.5527C86.8349 15.4017 87.3662 15.3262 87.9391 15.3262C88.5328 15.3262 89.0745 15.4121 89.5641 15.584C90.0589 15.7559 90.4834 15.9954 90.8375 16.3027C91.1917 16.6152 91.4677 16.985 91.6656 17.4121C91.8636 17.8392 91.9625 18.3079 91.9625 18.8184H89.8219C89.8115 18.5632 89.7646 18.3288 89.6813 18.1152C89.6031 17.9017 89.486 17.7168 89.3297 17.5605C89.1683 17.4095 88.9677 17.2923 88.7281 17.209C88.4938 17.1204 88.2177 17.0762 87.9 17.0762C87.6084 17.0762 87.3479 17.1126 87.1188 17.1855C86.8948 17.2533 86.7047 17.3496 86.5485 17.4746C86.3922 17.6048 86.2724 17.7585 86.1891 17.9355C86.111 18.1074 86.0719 18.2949 86.0719 18.498C86.0719 18.7116 86.124 18.9043 86.2281 19.0762C86.3375 19.248 86.4938 19.4017 86.6969 19.5371C86.9 19.6777 87.1448 19.8053 87.4313 19.9199C87.7229 20.0345 88.0511 20.1413 88.4156 20.2402C88.8063 20.3496 89.1787 20.4824 89.5328 20.6387C89.887 20.7949 90.2125 20.9746 90.5094 21.1777C90.9573 21.5111 91.3141 21.8991 91.5797 22.3418C91.8453 22.7845 91.9781 23.2949 91.9781 23.873C91.9781 24.373 91.8766 24.8184 91.6735 25.209C91.4755 25.5944 91.1995 25.9199 90.8453 26.1855C90.4912 26.4564 90.0693 26.6621 89.5797 26.8027C89.0901 26.9382 88.5563 27.0059 87.9781 27.0059C87.4104 27.0059 86.8479 26.9225 86.2906 26.7559C85.7386 26.584 85.2568 26.334 84.8453 26.0059C84.4547 25.6829 84.1448 25.3027 83.9156 24.8652C83.6917 24.4277 83.5797 23.9147 83.5797 23.3262H85.736C85.7464 23.6699 85.8063 23.9642 85.9156 24.209C86.025 24.4538 86.1787 24.6543 86.3766 24.8105C86.5693 24.9668 86.8011 25.0814 87.0719 25.1543C87.3479 25.2272 87.65 25.2637 87.9781 25.2637C88.2698 25.2637 88.5276 25.2298 88.7516 25.1621C88.9808 25.0944 89.1735 25.0007 89.3297 24.8809C89.486 24.7611 89.6058 24.6178 89.6891 24.4512C89.7724 24.2793 89.8141 24.0918 89.8141 23.8887ZM97.3375 25.2793C97.5511 25.2793 97.7542 25.248 97.9469 25.1855C98.1396 25.123 98.3089 25.0345 98.4547 24.9199C98.6005 24.8053 98.7125 24.6673 98.7906 24.5059C98.874 24.3444 98.9104 24.1647 98.9 23.9668H100.947C100.957 24.4043 100.866 24.8105 100.673 25.1855C100.486 25.5605 100.228 25.8835 99.9 26.1543C99.5719 26.4251 99.1891 26.6387 98.7516 26.7949C98.3193 26.946 97.861 27.0215 97.3766 27.0215C96.7203 27.0215 96.1448 26.9121 95.65 26.6934C95.1552 26.4694 94.7438 26.1647 94.4156 25.7793C94.0823 25.3939 93.8297 24.9434 93.6578 24.4277C93.4912 23.9069 93.4078 23.3496 93.4078 22.7559V22.5215C93.4078 21.9277 93.4912 21.373 93.6578 20.8574C93.8245 20.3366 94.0745 19.8835 94.4078 19.498C94.7412 19.1126 95.1526 18.8079 95.6422 18.584C96.137 18.36 96.7099 18.248 97.361 18.248C97.8818 18.248 98.3636 18.3262 98.8063 18.4824C99.249 18.6387 99.6318 18.8574 99.9547 19.1387C100.272 19.4251 100.52 19.7715 100.697 20.1777C100.874 20.5788 100.957 21.0293 100.947 21.5293H98.9C98.9104 21.321 98.8792 21.123 98.8063 20.9355C98.7334 20.748 98.6266 20.5866 98.486 20.4512C98.3453 20.3158 98.1761 20.209 97.9781 20.1309C97.7802 20.0475 97.5641 20.0059 97.3297 20.0059C96.986 20.0059 96.7021 20.0762 96.4781 20.2168C96.2542 20.3574 96.0771 20.5449 95.9469 20.7793C95.8115 21.0137 95.7151 21.2819 95.6578 21.584C95.6058 21.8861 95.5797 22.1986 95.5797 22.5215V22.7559C95.5797 23.084 95.6058 23.4017 95.6578 23.709C95.7099 24.0111 95.8037 24.2767 95.9391 24.5059C96.0693 24.7402 96.2464 24.9277 96.4703 25.0684C96.6995 25.209 96.9886 25.2793 97.3375 25.2793ZM109.275 18.248C109.603 18.248 109.905 18.2715 110.181 18.3184C110.463 18.36 110.689 18.4069 110.861 18.459L110.541 20.623C110.254 20.5553 109.96 20.5059 109.658 20.4746C109.361 20.4382 109.077 20.4199 108.806 20.4199C108.525 20.4199 108.27 20.446 108.041 20.498C107.817 20.5449 107.616 20.6178 107.439 20.7168C107.226 20.8314 107.043 20.9772 106.892 21.1543C106.741 21.3314 106.616 21.5397 106.517 21.7793V26.8574H104.345V18.4043H106.369L106.455 19.5996L106.47 19.7871C106.814 19.3079 107.226 18.9329 107.705 18.6621C108.184 18.3861 108.707 18.248 109.275 18.248ZM113.392 18.4043H117.994V25.0918H120.283V26.8574H113.392V25.0918H115.798V20.1777H113.392V18.4043ZM115.642 16.2402C115.642 16.0736 115.671 15.9199 115.728 15.7793C115.791 15.6335 115.877 15.5085 115.986 15.4043C116.095 15.3053 116.226 15.2272 116.377 15.1699C116.533 15.1126 116.705 15.084 116.892 15.084C117.278 15.084 117.582 15.1934 117.806 15.4121C118.035 15.6257 118.15 15.9017 118.15 16.2402C118.15 16.5788 118.035 16.8574 117.806 17.0762C117.582 17.2897 117.278 17.3965 116.892 17.3965C116.705 17.3965 116.533 17.3678 116.377 17.3105C116.226 17.2533 116.095 17.1725 115.986 17.0684C115.877 16.9694 115.791 16.8496 115.728 16.709C115.671 16.5632 115.642 16.4069 115.642 16.2402ZM122.455 30.1074V18.4043H124.463L124.541 19.2324C124.655 19.0918 124.78 18.9668 124.916 18.8574C125.051 18.7428 125.197 18.6439 125.353 18.5605C125.541 18.4616 125.746 18.3861 125.97 18.334C126.2 18.2767 126.444 18.248 126.705 18.248C127.241 18.248 127.715 18.3522 128.127 18.5605C128.538 18.7637 128.884 19.0527 129.166 19.4277C129.447 19.8079 129.658 20.2637 129.798 20.7949C129.944 21.321 130.017 21.9043 130.017 22.5449V22.709C130.017 23.3236 129.944 23.8939 129.798 24.4199C129.658 24.946 129.45 25.3991 129.173 25.7793C128.892 26.1647 128.546 26.4668 128.134 26.6855C127.723 26.9043 127.252 27.0137 126.72 27.0137C126.439 27.0137 126.179 26.9824 125.939 26.9199C125.705 26.8626 125.486 26.7767 125.283 26.6621C125.163 26.5892 125.048 26.5085 124.939 26.4199C124.83 26.3314 124.726 26.2324 124.627 26.123V30.1074H122.455ZM127.845 22.5449C127.845 22.1908 127.811 21.86 127.744 21.5527C127.681 21.2402 127.582 20.9694 127.447 20.7402C127.306 20.5163 127.127 20.3392 126.908 20.209C126.694 20.0788 126.434 20.0137 126.127 20.0137C125.95 20.0137 125.788 20.0319 125.642 20.0684C125.496 20.0996 125.364 20.1465 125.244 20.209C125.108 20.2819 124.989 20.373 124.884 20.4824C124.785 20.5918 124.7 20.7194 124.627 20.8652V24.3965C124.694 24.5319 124.775 24.6543 124.869 24.7637C124.968 24.873 125.08 24.9668 125.205 25.0449C125.325 25.1178 125.463 25.1751 125.619 25.2168C125.775 25.2533 125.95 25.2715 126.142 25.2715C126.45 25.2715 126.71 25.2038 126.923 25.0684C127.142 24.9329 127.319 24.748 127.455 24.5137C127.59 24.2793 127.689 24.0085 127.752 23.7012C127.814 23.3887 127.845 23.0579 127.845 22.709V22.5449ZM136.017 16.334V18.4043H139.173V20.0059H136.017V23.6387C136.017 23.946 136.051 24.2038 136.119 24.4121C136.192 24.6152 136.293 24.7767 136.423 24.8965C136.554 25.0215 136.71 25.11 136.892 25.1621C137.08 25.2142 137.288 25.2402 137.517 25.2402C137.684 25.2402 137.853 25.2324 138.025 25.2168C138.202 25.2012 138.371 25.1803 138.533 25.1543C138.689 25.1335 138.835 25.11 138.97 25.084C139.111 25.0579 139.231 25.0319 139.33 25.0059L139.541 26.498C139.39 26.5866 139.213 26.6647 139.009 26.7324C138.806 26.7949 138.59 26.847 138.361 26.8887C138.132 26.9303 137.892 26.9616 137.642 26.9824C137.397 27.0085 137.155 27.0215 136.916 27.0215C136.452 27.0215 136.03 26.9616 135.65 26.8418C135.275 26.7168 134.955 26.5241 134.689 26.2637C134.418 26.0085 134.21 25.6829 134.064 25.2871C133.918 24.8861 133.845 24.4069 133.845 23.8496V20.0059H131.916V18.4043H133.845V16.334H136.017Z" fill="white"/>
</svg>
