<svg width="141" height="36" viewBox="0 0 141 36" fill="none" xmlns="http://www.w3.org/2000/svg">
<path d="M20.0012 21.425C21.971 21.425 23.5678 19.8281 23.5678 17.8584C23.5678 15.8886 21.971 14.2917 20.0012 14.2917C18.0314 14.2917 16.4346 15.8886 16.4346 17.8584C16.4346 19.8281 18.0314 21.425 20.0012 21.425Z" fill="white"/>
<path d="M10.0145 24.9495L9.22523 24.7477C3.3628 23.2671 0 20.7495 0 17.8502C0 14.949 3.3648 12.4334 9.22523 10.9528L10.0145 10.753L10.2363 11.5342C10.8288 13.5797 11.5879 15.5731 12.5061 17.4946L12.676 17.8502L12.5061 18.2059C11.587 20.1301 10.8257 22.1242 10.2363 24.1702L10.0145 24.9495ZM8.86158 12.7711C4.40781 14.0259 1.67241 15.94 1.67241 17.8502C1.67241 19.7564 4.40582 21.6726 8.86158 22.9254C9.40706 21.1911 10.0664 19.4947 10.8297 17.8502C10.0609 16.2031 9.40339 14.5062 8.86158 12.7711ZM29.9855 24.9495L29.7657 24.1662C29.1716 22.1204 28.4118 20.1263 27.4939 18.2039L27.324 17.8502L27.4939 17.4926C28.413 15.5724 29.1703 13.5763 29.7657 11.5302L29.9855 10.751L30.7748 10.9508C36.6392 12.4314 40 14.947 40 17.8502C40 20.7515 36.6372 23.2671 30.7748 24.7477L29.9855 24.9495ZM29.1663 17.8502C29.9655 19.5806 30.6309 21.283 31.1384 22.9254C35.5942 21.6726 38.3296 19.7564 38.3296 17.8502C38.3296 15.94 35.5962 14.0279 31.1384 12.7711C30.5935 14.5057 29.9347 16.2024 29.1663 17.8502Z" fill="white"/>
<path d="M8.84962 12.7632L8.62983 11.9839C6.9794 6.17345 7.47892 2.0114 10.0025 0.560778C12.4702 -0.867864 16.4404 0.820532 20.5985 5.08648L21.1659 5.66992L20.5985 6.25137C19.1216 7.78729 17.7718 9.44048 16.5623 11.1947L16.3365 11.5184L15.9449 11.5503C13.8181 11.7174 11.7084 12.0575 9.63687 12.5674L8.84962 12.7632ZM12.0106 1.71568C11.563 1.71568 11.1674 1.81359 10.8337 2.00541C9.17931 2.9585 8.88758 6.27735 10.0265 10.7571C11.8068 10.3635 13.6031 10.0817 15.4134 9.92388C16.4614 8.4374 17.6047 7.02044 18.8361 5.68191C16.2326 3.15032 13.7749 1.71568 12.0106 1.71568ZM27.9894 35.6514C25.6157 35.6514 22.5666 33.8611 19.4016 30.6122L18.8361 30.0308L19.4016 29.4513C20.8787 27.913 22.2291 26.2578 23.4398 24.502L23.6635 24.1823L24.0512 24.1444C26.1787 23.9803 28.2892 23.6415 30.3612 23.1313L31.1504 22.9315L31.3722 23.7128C33.0147 29.5193 32.5171 33.6873 29.9975 35.1379C29.3858 35.4847 28.6926 35.662 27.9894 35.6514ZM21.1659 30.0168C23.7674 32.5484 26.2271 33.985 27.9894 33.985C28.439 33.985 28.8346 33.8851 29.1663 33.6953C30.8227 32.7402 31.1165 29.4154 29.9736 24.9356C28.1952 25.3312 26.3969 25.615 24.5827 25.7728C23.5391 27.2617 22.3976 28.6794 21.1659 30.0168Z" fill="white"/>
<path d="M31.1504 12.7631L30.3612 12.5653C28.2893 12.0538 26.1788 11.7137 24.0511 11.5482L23.6635 11.5143L23.4397 11.1906C22.2308 9.43542 20.8802 7.78213 19.4016 6.24728L18.8361 5.66583L19.4016 5.08638C23.5576 0.822432 27.5258 -0.865964 29.9975 0.560681C32.5191 2.0133 33.0206 6.17535 31.3722 11.9838L31.1504 12.7631ZM24.5826 9.92379C26.4888 10.0936 28.2951 10.3794 29.9735 10.757C31.1144 6.27725 30.8227 2.9584 29.1663 2.00331C27.5199 1.05022 24.4208 2.50883 21.1659 5.68182C22.3967 7.02054 23.5396 8.4352 24.5826 9.92379ZM12.0106 35.6513C11.3075 35.6614 10.6144 35.4841 10.0025 35.1378C7.47889 33.6872 6.97937 29.5212 8.6278 23.7127L8.8436 22.9314L9.63285 23.1312C11.559 23.6168 13.681 23.9585 15.9429 24.1443L16.3305 24.1822L16.5563 24.5019C17.7631 26.2563 19.1138 27.9127 20.5924 29.4512L21.1599 30.0307L20.5924 30.6121C17.4294 33.863 14.3803 35.6513 12.0106 35.6513ZM10.0265 24.9375C8.88755 29.4173 9.17928 32.7421 10.8337 33.6972C12.4821 34.6363 15.5712 33.1877 18.8361 30.0167C17.6052 28.6778 16.4619 27.2608 15.4134 25.7747C13.6013 25.6145 11.8017 25.3348 10.0265 24.9375Z" fill="white"/>
<path d="M20.0009 25.9869C18.6282 25.9869 17.2195 25.929 15.8049 25.8111L15.4132 25.7771L15.1874 25.4534C14.3897 24.3063 13.6391 23.1271 12.9376 21.9188C12.2412 20.7072 11.594 19.468 10.9974 18.2043L10.8296 17.8507L10.9974 17.493C11.5949 16.2302 12.2403 14.9914 12.9376 13.7805C13.6309 12.5897 14.3882 11.3988 15.1874 10.2439L15.4132 9.92419L15.8049 9.88823C18.596 9.65445 21.4018 9.65445 24.1929 9.88823L24.5805 9.92619L24.8063 10.2459C26.4044 12.5412 27.8079 14.966 29.0023 17.495L29.1682 17.8527L29.0023 18.2063C27.8112 20.737 26.4075 23.1621 24.8063 25.4554L24.5805 25.7791L24.1929 25.8131C22.7822 25.927 21.3716 25.9869 20.0009 25.9869ZM16.3364 24.1806C18.804 24.3665 21.1977 24.3665 23.6634 24.1806C25.0399 22.165 26.2635 20.0491 27.3239 17.8507C26.2672 15.6503 25.0435 13.5341 23.6634 11.5207C21.2247 11.3329 18.7751 11.3329 16.3364 11.5207C14.9552 13.5334 13.7313 15.6496 12.6758 17.8507C13.7386 20.0479 14.9621 22.1636 16.3364 24.1806Z" fill="white"/>
<path d="M58.9453 19.813H57.2812V24.063H55.0859V12.688H58.8984C59.5286 12.688 60.099 12.7635 60.6094 12.9146C61.1198 13.0604 61.5573 13.2765 61.9219 13.563C62.2812 13.8494 62.5573 14.2062 62.75 14.6333C62.9479 15.0604 63.0469 15.5552 63.0469 16.1177C63.0469 16.5239 62.9974 16.8911 62.8984 17.2192C62.8047 17.5422 62.6693 17.8312 62.4922 18.0864C62.3099 18.3468 62.0911 18.5734 61.8359 18.7661C61.5859 18.9588 61.3047 19.1255 60.9922 19.2661L63.4375 23.9614V24.063H61.0859L58.9453 19.813ZM57.2812 18.0317H58.9062C59.2448 18.0317 59.5417 17.9849 59.7969 17.8911C60.0573 17.7922 60.2682 17.6515 60.4297 17.4692C60.5651 17.3234 60.6667 17.1489 60.7344 16.9458C60.8073 16.7427 60.8438 16.5161 60.8438 16.2661C60.8438 15.964 60.7969 15.6984 60.7031 15.4692C60.6146 15.2349 60.4792 15.0422 60.2969 14.8911C60.1354 14.7557 59.9375 14.6515 59.7031 14.5786C59.4688 14.5057 59.2005 14.4692 58.8984 14.4692H57.2812V18.0317ZM68.875 24.2192C68.224 24.2192 67.6328 24.1125 67.1016 23.8989C66.5703 23.6854 66.1146 23.3937 65.7344 23.0239C65.3542 22.6593 65.0599 22.2297 64.8516 21.7349C64.6484 21.2349 64.5469 20.701 64.5469 20.1333V19.8208C64.5469 19.175 64.6484 18.5864 64.8516 18.0552C65.0547 17.5187 65.3385 17.0578 65.7031 16.6724C66.0677 16.2869 66.5 15.9875 67 15.7739C67.5 15.5604 68.0443 15.4536 68.6328 15.4536C69.2422 15.4536 69.7839 15.5552 70.2578 15.7583C70.737 15.9562 71.1432 16.2375 71.4766 16.6021C71.8047 16.9666 72.0547 17.4067 72.2266 17.9224C72.3984 18.4328 72.4844 18.9979 72.4844 19.6177V20.5396H66.75V20.563C66.8229 20.9015 66.9167 21.175 67.0312 21.3833C67.1458 21.5864 67.2995 21.7713 67.4922 21.938C67.6901 22.1099 67.9167 22.2427 68.1719 22.3364C68.4271 22.4302 68.7057 22.4771 69.0078 22.4771C69.4349 22.4771 69.849 22.3963 70.25 22.2349C70.651 22.0734 70.9766 21.8312 71.2266 21.5083L72.3125 22.6802C72.0365 23.0708 71.599 23.425 71 23.7427C70.401 24.0604 69.6927 24.2192 68.875 24.2192ZM68.6172 17.2114C68.3724 17.2114 68.1484 17.2557 67.9453 17.3442C67.7422 17.4276 67.5651 17.55 67.4141 17.7114C67.2578 17.8729 67.1276 18.0656 67.0234 18.2896C66.9193 18.5135 66.8411 18.7635 66.7891 19.0396H70.3516V18.8677C70.3516 18.6385 70.3099 18.4224 70.2266 18.2192C70.1432 18.0161 70.0286 17.839 69.8828 17.688C69.737 17.5422 69.5573 17.4276 69.3438 17.3442C69.1354 17.2557 68.8932 17.2114 68.6172 17.2114ZM79.6641 24.063C79.612 23.9588 79.5677 23.839 79.5312 23.7036C79.4948 23.5682 79.4635 23.425 79.4375 23.2739C79.3177 23.4041 79.1797 23.5265 79.0234 23.6411C78.8672 23.7557 78.6953 23.8547 78.5078 23.938C78.3151 24.0265 78.1042 24.0942 77.875 24.1411C77.6458 24.1932 77.3984 24.2192 77.1328 24.2192C76.7005 24.2192 76.3021 24.1567 75.9375 24.0317C75.5781 23.9067 75.2682 23.7323 75.0078 23.5083C74.7474 23.2843 74.5443 23.0187 74.3984 22.7114C74.2526 22.3989 74.1797 22.0604 74.1797 21.6958C74.1797 21.2271 74.2708 20.813 74.4531 20.4536C74.6354 20.089 74.9089 19.7896 75.2734 19.5552C75.6016 19.3416 76.0052 19.1802 76.4844 19.0708C76.9688 18.9562 77.5234 18.8989 78.1484 18.8989H79.3594V18.3989C79.3594 18.201 79.3281 18.0239 79.2656 17.8677C79.2031 17.7062 79.1094 17.5682 78.9844 17.4536C78.8542 17.3338 78.6901 17.2427 78.4922 17.1802C78.2995 17.1125 78.0729 17.0786 77.8125 17.0786C77.5833 17.0786 77.3854 17.1073 77.2188 17.1646C77.0521 17.2166 76.9167 17.2922 76.8125 17.3911C76.7188 17.4797 76.6484 17.5864 76.6016 17.7114C76.5599 17.8364 76.5391 17.9744 76.5391 18.1255H74.3672C74.3672 17.7661 74.4453 17.425 74.6016 17.1021C74.763 16.7791 74.9974 16.4953 75.3047 16.2505C75.6068 16.0057 75.9766 15.813 76.4141 15.6724C76.8568 15.5265 77.362 15.4536 77.9297 15.4536C78.4401 15.4536 78.9141 15.5161 79.3516 15.6411C79.7943 15.7661 80.1771 15.951 80.5 16.1958C80.8229 16.4406 81.0755 16.7505 81.2578 17.1255C81.4401 17.4953 81.5312 17.925 81.5312 18.4146V22.0396C81.5312 22.4927 81.5599 22.8677 81.6172 23.1646C81.6745 23.4614 81.7578 23.7166 81.8672 23.9302V24.063H79.6641ZM77.5938 22.5396C77.8125 22.5396 78.0156 22.5135 78.2031 22.4614C78.3906 22.4093 78.5599 22.3416 78.7109 22.2583C78.862 22.175 78.9922 22.0812 79.1016 21.9771C79.2109 21.8677 79.2969 21.7583 79.3594 21.6489V20.1958H78.25C77.9115 20.1958 77.6224 20.2297 77.3828 20.2974C77.1432 20.3599 76.9479 20.4484 76.7969 20.563C76.6458 20.6828 76.5339 20.826 76.4609 20.9927C76.388 21.1541 76.3516 21.3312 76.3516 21.5239C76.3516 21.675 76.3776 21.8156 76.4297 21.9458C76.487 22.0708 76.5677 22.1776 76.6719 22.2661C76.776 22.3494 76.9036 22.4172 77.0547 22.4692C77.2109 22.5161 77.3906 22.5396 77.5938 22.5396ZM87.7344 22.4849C87.9479 22.4849 88.151 22.4536 88.3438 22.3911C88.5365 22.3286 88.7057 22.2401 88.8516 22.1255C88.9974 22.0109 89.1094 21.8729 89.1875 21.7114C89.2708 21.55 89.3073 21.3703 89.2969 21.1724H91.3438C91.3542 21.6099 91.263 22.0161 91.0703 22.3911C90.8828 22.7661 90.625 23.089 90.2969 23.3599C89.9688 23.6307 89.5859 23.8442 89.1484 24.0005C88.7161 24.1515 88.2578 24.2271 87.7734 24.2271C87.1172 24.2271 86.5417 24.1177 86.0469 23.8989C85.5521 23.675 85.1406 23.3703 84.8125 22.9849C84.4792 22.5994 84.2266 22.1489 84.0547 21.6333C83.888 21.1125 83.8047 20.5552 83.8047 19.9614V19.7271C83.8047 19.1333 83.888 18.5786 84.0547 18.063C84.2214 17.5422 84.4714 17.089 84.8047 16.7036C85.138 16.3182 85.5495 16.0135 86.0391 15.7896C86.5339 15.5656 87.1068 15.4536 87.7578 15.4536C88.2786 15.4536 88.7604 15.5317 89.2031 15.688C89.6458 15.8442 90.0286 16.063 90.3516 16.3442C90.6693 16.6307 90.9167 16.9771 91.0938 17.3833C91.2708 17.7843 91.3542 18.2349 91.3438 18.7349H89.2969C89.3073 18.5265 89.276 18.3286 89.2031 18.1411C89.1302 17.9536 89.0234 17.7922 88.8828 17.6567C88.7422 17.5213 88.5729 17.4146 88.375 17.3364C88.1771 17.2531 87.9609 17.2114 87.7266 17.2114C87.3828 17.2114 87.099 17.2817 86.875 17.4224C86.651 17.563 86.474 17.7505 86.3438 17.9849C86.2083 18.2192 86.112 18.4875 86.0547 18.7896C86.0026 19.0916 85.9766 19.4041 85.9766 19.7271V19.9614C85.9766 20.2896 86.0026 20.6073 86.0547 20.9146C86.1068 21.2166 86.2005 21.4823 86.3359 21.7114C86.4661 21.9458 86.6432 22.1333 86.8672 22.2739C87.0964 22.4146 87.3854 22.4849 87.7344 22.4849ZM97.5859 13.5396V15.6099H100.742V17.2114H97.5859V20.8442C97.5859 21.1515 97.6198 21.4093 97.6875 21.6177C97.7604 21.8208 97.862 21.9823 97.9922 22.1021C98.1224 22.2271 98.2786 22.3156 98.4609 22.3677C98.6484 22.4198 98.8568 22.4458 99.0859 22.4458C99.2526 22.4458 99.4219 22.438 99.5938 22.4224C99.7708 22.4067 99.9401 22.3859 100.102 22.3599C100.258 22.339 100.404 22.3156 100.539 22.2896C100.68 22.2635 100.799 22.2375 100.898 22.2114L101.109 23.7036C100.958 23.7922 100.781 23.8703 100.578 23.938C100.375 24.0005 100.159 24.0526 99.9297 24.0942C99.7005 24.1359 99.4609 24.1672 99.2109 24.188C98.9661 24.214 98.724 24.2271 98.4844 24.2271C98.0208 24.2271 97.599 24.1672 97.2188 24.0474C96.8438 23.9224 96.5234 23.7297 96.2578 23.4692C95.987 23.214 95.7786 22.8885 95.6328 22.4927C95.487 22.0916 95.4141 21.6125 95.4141 21.0552V17.2114H93.4844V15.6099H95.4141V13.5396H97.5859ZM105.406 22.8052C105.406 22.4041 105.539 22.0656 105.805 21.7896C106.07 21.5083 106.44 21.3677 106.914 21.3677C107.383 21.3677 107.75 21.5057 108.016 21.7817C108.286 22.0578 108.422 22.3989 108.422 22.8052C108.422 23.2114 108.284 23.55 108.008 23.8208C107.737 24.0864 107.372 24.2192 106.914 24.2192C106.451 24.2192 106.083 24.0838 105.812 23.813C105.542 23.5422 105.406 23.2062 105.406 22.8052ZM118.109 12.688H120.305L120.312 20.5708C120.307 21.1125 120.203 21.6073 120 22.0552C119.802 22.4979 119.529 22.8807 119.18 23.2036C118.831 23.5265 118.419 23.7765 117.945 23.9536C117.477 24.1307 116.971 24.2192 116.43 24.2192C115.857 24.2192 115.336 24.1463 114.867 24.0005C114.398 23.8547 113.997 23.6359 113.664 23.3442C113.326 23.0578 113.062 22.6958 112.875 22.2583C112.688 21.8208 112.591 21.3078 112.586 20.7192H114.789C114.789 20.9901 114.815 21.2271 114.867 21.4302C114.919 21.6333 114.997 21.8052 115.102 21.9458C115.237 22.1177 115.414 22.2453 115.633 22.3286C115.852 22.4119 116.117 22.4536 116.43 22.4536C116.68 22.4536 116.909 22.4067 117.117 22.313C117.326 22.214 117.503 22.0812 117.648 21.9146C117.794 21.7479 117.906 21.55 117.984 21.3208C118.068 21.0864 118.109 20.8364 118.109 20.5708V12.688ZM128.258 21.0942C128.258 20.8911 128.221 20.701 128.148 20.5239C128.081 20.3468 127.964 20.1802 127.797 20.0239C127.625 19.8729 127.401 19.7349 127.125 19.6099C126.854 19.4797 126.516 19.3599 126.109 19.2505C125.479 19.0786 124.924 18.8703 124.445 18.6255C123.971 18.3807 123.583 18.1125 123.281 17.8208C122.979 17.5291 122.75 17.2062 122.594 16.8521C122.443 16.4979 122.367 16.1125 122.367 15.6958C122.367 15.2166 122.469 14.7817 122.672 14.3911C122.875 14.0005 123.156 13.6672 123.516 13.3911C123.875 13.1151 124.299 12.9041 124.789 12.7583C125.279 12.6073 125.81 12.5317 126.383 12.5317C126.977 12.5317 127.518 12.6177 128.008 12.7896C128.503 12.9614 128.927 13.201 129.281 13.5083C129.635 13.8208 129.911 14.1906 130.109 14.6177C130.307 15.0448 130.406 15.5135 130.406 16.0239H128.266C128.255 15.7687 128.208 15.5343 128.125 15.3208C128.047 15.1073 127.93 14.9224 127.773 14.7661C127.612 14.6151 127.411 14.4979 127.172 14.4146C126.938 14.326 126.661 14.2817 126.344 14.2817C126.052 14.2817 125.792 14.3182 125.562 14.3911C125.339 14.4588 125.148 14.5552 124.992 14.6802C124.836 14.8104 124.716 14.964 124.633 15.1411C124.555 15.313 124.516 15.5005 124.516 15.7036C124.516 15.9172 124.568 16.1099 124.672 16.2817C124.781 16.4536 124.938 16.6073 125.141 16.7427C125.344 16.8833 125.589 17.0109 125.875 17.1255C126.167 17.2401 126.495 17.3468 126.859 17.4458C127.25 17.5552 127.622 17.688 127.977 17.8442C128.331 18.0005 128.656 18.1802 128.953 18.3833C129.401 18.7166 129.758 19.1047 130.023 19.5474C130.289 19.9901 130.422 20.5005 130.422 21.0786C130.422 21.5786 130.32 22.0239 130.117 22.4146C129.919 22.8 129.643 23.1255 129.289 23.3911C128.935 23.6619 128.513 23.8677 128.023 24.0083C127.534 24.1437 127 24.2114 126.422 24.2114C125.854 24.2114 125.292 24.1281 124.734 23.9614C124.182 23.7896 123.701 23.5396 123.289 23.2114C122.898 22.8885 122.589 22.5083 122.359 22.0708C122.135 21.6333 122.023 21.1203 122.023 20.5317H124.18C124.19 20.8755 124.25 21.1698 124.359 21.4146C124.469 21.6593 124.622 21.8599 124.82 22.0161C125.013 22.1724 125.245 22.2869 125.516 22.3599C125.792 22.4328 126.094 22.4692 126.422 22.4692C126.714 22.4692 126.971 22.4354 127.195 22.3677C127.424 22.3 127.617 22.2062 127.773 22.0864C127.93 21.9666 128.049 21.8234 128.133 21.6567C128.216 21.4849 128.258 21.2974 128.258 21.0942Z" fill="white"/>
</svg>
