<svg width="121" height="25" viewBox="0 0 121 25" fill="none" xmlns="http://www.w3.org/2000/svg">
<path d="M33.0016 7.87758C31.5017 7.361 30.1778 6.43216 29.1816 5.19758C28.0837 3.82205 26.6857 2.71586 25.0946 1.96363C23.5035 1.2114 21.7614 0.833075 20.0016 0.857584C17.6343 0.689935 15.2908 1.42007 13.4376 2.9026C11.5844 4.38512 10.3577 6.51125 10.0016 8.85758C10.7029 7.68407 11.7585 6.76332 13.0164 6.22782C14.2743 5.69232 15.6696 5.5697 17.0016 5.87758C18.499 6.4092 19.8208 7.34344 20.8216 8.57758C21.9255 9.94213 23.3261 11.0369 24.9169 11.7786C26.5077 12.5202 28.2467 12.8893 30.0016 12.8576C32.3689 13.0252 34.7124 12.2951 36.5656 10.8126C38.4187 9.33005 39.6455 7.20391 40.0016 4.85758C39.313 6.04513 38.2608 6.97979 37.0003 7.52359C35.7399 8.06738 34.338 8.19149 33.0016 7.87758ZM7.00159 17.8376C8.50148 18.3542 9.82542 19.283 10.8216 20.5176C11.9195 21.8931 13.3175 22.9993 14.9086 23.7515C16.4997 24.5038 18.2418 24.8821 20.0016 24.8576C22.3689 25.0252 24.7124 24.2951 26.5656 22.8126C28.4187 21.33 29.6455 19.2039 30.0016 16.8576C29.3002 18.0311 28.2447 18.9518 26.9868 19.4873C25.7289 20.0228 24.3336 20.1455 23.0016 19.8376C21.5042 19.306 20.1824 18.3717 19.1816 17.1376C18.0747 15.7764 16.6735 14.6841 15.0834 13.9427C13.4933 13.2014 11.7558 12.8303 10.0016 12.8576C7.63432 12.6899 5.29075 13.4201 3.4376 14.9026C1.58444 16.3851 0.357671 18.5113 0.00158691 20.8576C0.6902 19.67 1.7424 18.7354 3.00285 18.1916C4.26331 17.6478 5.66521 17.5237 7.00159 17.8376Z" fill="white"/>
<path d="M53.4469 9.77173H49.9391V19.3577H47.736V9.77173H44.275V7.98267H53.4469V9.77173ZM60.0563 19.3577C60.0042 19.2535 59.9599 19.1337 59.9235 18.9983C59.887 18.8629 59.8558 18.7196 59.8297 18.5686C59.7099 18.6988 59.5719 18.8212 59.4156 18.9358C59.2594 19.0504 59.0875 19.1493 58.9 19.2327C58.7073 19.3212 58.4964 19.3889 58.2672 19.4358C58.038 19.4879 57.7906 19.5139 57.525 19.5139C57.0927 19.5139 56.6943 19.4514 56.3297 19.3264C55.9703 19.2014 55.6604 19.0269 55.4 18.803C55.1396 18.579 54.9365 18.3134 54.7906 18.0061C54.6448 17.6936 54.5719 17.3551 54.5719 16.9905C54.5719 16.5217 54.663 16.1077 54.8453 15.7483C55.0276 15.3837 55.3011 15.0842 55.6656 14.8499C55.9938 14.6363 56.3974 14.4749 56.8766 14.3655C57.361 14.2509 57.9156 14.1936 58.5406 14.1936H59.7516V13.6936C59.7516 13.4957 59.7203 13.3186 59.6578 13.1624C59.5953 13.0009 59.5016 12.8629 59.3766 12.7483C59.2464 12.6285 59.0823 12.5374 58.8844 12.4749C58.6917 12.4071 58.4651 12.3733 58.2047 12.3733C57.9755 12.3733 57.7776 12.4019 57.611 12.4592C57.4443 12.5113 57.3089 12.5868 57.2047 12.6858C57.111 12.7743 57.0406 12.8811 56.9938 13.0061C56.9521 13.1311 56.9313 13.2691 56.9313 13.4202H54.7594C54.7594 13.0608 54.8375 12.7196 54.9938 12.3967C55.1552 12.0738 55.3896 11.79 55.6969 11.5452C55.999 11.3004 56.3688 11.1077 56.8063 10.967C57.249 10.8212 57.7542 10.7483 58.3219 10.7483C58.8323 10.7483 59.3063 10.8108 59.7438 10.9358C60.1865 11.0608 60.5693 11.2457 60.8922 11.4905C61.2151 11.7353 61.4677 12.0452 61.65 12.4202C61.8323 12.79 61.9235 13.2196 61.9235 13.7092V17.3342C61.9235 17.7874 61.9521 18.1624 62.0094 18.4592C62.0667 18.7561 62.15 19.0113 62.2594 19.2249V19.3577H60.0563ZM57.986 17.8342C58.2047 17.8342 58.4078 17.8082 58.5953 17.7561C58.7828 17.704 58.9521 17.6363 59.1031 17.553C59.2542 17.4696 59.3844 17.3759 59.4938 17.2717C59.6031 17.1624 59.6891 17.053 59.7516 16.9436V15.4905H58.6422C58.3037 15.4905 58.0146 15.5243 57.775 15.592C57.5354 15.6545 57.3401 15.7431 57.1891 15.8577C57.038 15.9775 56.9261 16.1207 56.8531 16.2874C56.7802 16.4488 56.7438 16.6259 56.7438 16.8186C56.7438 16.9696 56.7698 17.1103 56.8219 17.2405C56.8792 17.3655 56.9599 17.4722 57.0641 17.5608C57.1683 17.6441 57.2959 17.7118 57.4469 17.7639C57.6031 17.8108 57.7828 17.8342 57.986 17.8342ZM64.9625 10.9045H69.5641V17.592H71.8531V19.3577H64.9625V17.592H67.3688V12.678H64.9625V10.9045ZM67.2125 8.74048C67.2125 8.57381 67.2412 8.42017 67.2985 8.27954C67.361 8.13371 67.4469 8.00871 67.5563 7.90454C67.6656 7.80558 67.7959 7.72746 67.9469 7.67017C68.1031 7.61287 68.275 7.58423 68.4625 7.58423C68.8479 7.58423 69.1526 7.6936 69.3766 7.91235C69.6058 8.1259 69.7203 8.40194 69.7203 8.74048C69.7203 9.07902 69.6058 9.35767 69.3766 9.57642C69.1526 9.78996 68.8479 9.89673 68.4625 9.89673C68.275 9.89673 68.1031 9.86808 67.9469 9.81079C67.7959 9.7535 67.6656 9.67277 67.5563 9.5686C67.4469 9.46965 67.361 9.34985 67.2985 9.20923C67.2412 9.0634 67.2125 8.90715 67.2125 8.74048ZM74.4469 7.35767H79.1735V17.592H81.5953V19.3577H74.4469V17.592H76.9781V9.1311H74.4469V7.35767ZM84.2281 19.3577L82.7125 10.9045H84.6969L85.3297 15.928L85.4313 16.7327L85.5797 15.928L86.4938 10.9045H87.9469L88.861 15.9045L89.0094 16.7092L89.1188 15.8889L89.7438 10.9045H91.736L90.2203 19.3577H88.3141L87.3844 14.842L87.2047 13.9827L87.0328 14.842L86.1344 19.3577H84.2281ZM93.7906 10.9045H98.3922V17.592H100.681V19.3577H93.7906V17.592H96.1969V12.678H93.7906V10.9045ZM96.0406 8.74048C96.0406 8.57381 96.0693 8.42017 96.1266 8.27954C96.1891 8.13371 96.275 8.00871 96.3844 7.90454C96.4938 7.80558 96.624 7.72746 96.775 7.67017C96.9313 7.61287 97.1031 7.58423 97.2906 7.58423C97.6761 7.58423 97.9808 7.6936 98.2047 7.91235C98.4339 8.1259 98.5485 8.40194 98.5485 8.74048C98.5485 9.07902 98.4339 9.35767 98.2047 9.57642C97.9808 9.78996 97.6761 9.89673 97.2906 9.89673C97.1031 9.89673 96.9313 9.86808 96.775 9.81079C96.624 9.7535 96.4938 9.67277 96.3844 9.5686C96.275 9.46965 96.1891 9.34985 96.1266 9.20923C96.0693 9.0634 96.0406 8.90715 96.0406 8.74048ZM102.822 19.3577V10.9045H104.791L104.923 12.0764C105.033 11.9202 105.153 11.7769 105.283 11.6467C105.413 11.5165 105.551 11.3993 105.697 11.2952C105.947 11.1181 106.22 10.9827 106.517 10.8889C106.814 10.7952 107.129 10.7483 107.463 10.7483C107.89 10.7483 108.28 10.8108 108.634 10.9358C108.989 11.0608 109.296 11.2587 109.556 11.5295C109.811 11.8056 110.009 12.1597 110.15 12.592C110.296 13.0191 110.369 13.54 110.369 14.1545V19.3577H108.197V14.1858C108.197 13.8525 108.158 13.579 108.08 13.3655C108.007 13.1467 107.9 12.9749 107.759 12.8499C107.619 12.7249 107.45 12.6389 107.252 12.592C107.054 12.54 106.83 12.5139 106.58 12.5139C106.371 12.5139 106.179 12.5374 106.002 12.5842C105.83 12.6311 105.676 12.7014 105.541 12.7952C105.431 12.8629 105.332 12.9436 105.244 13.0374C105.155 13.1311 105.075 13.2353 105.002 13.3499V19.3577H102.822ZM112.205 15.0686C112.205 14.428 112.278 13.842 112.423 13.3108C112.575 12.7795 112.793 12.3238 113.08 11.9436C113.366 11.5634 113.713 11.2691 114.119 11.0608C114.53 10.8525 114.999 10.7483 115.525 10.7483C115.968 10.7483 116.356 10.829 116.689 10.9905C117.028 11.1467 117.327 11.3707 117.588 11.6624V7.35767H119.767V19.3577H117.806L117.697 18.4749C117.431 18.803 117.119 19.0582 116.759 19.2405C116.4 19.4228 115.983 19.5139 115.509 19.5139C114.994 19.5139 114.53 19.4071 114.119 19.1936C113.713 18.9749 113.369 18.6754 113.088 18.2952C112.801 17.915 112.582 17.4644 112.431 16.9436C112.28 16.4176 112.205 15.8472 112.205 15.2327V15.0686ZM114.377 15.2327C114.377 15.5868 114.405 15.9176 114.463 16.2249C114.525 16.5269 114.624 16.79 114.759 17.0139C114.895 17.2431 115.069 17.4228 115.283 17.553C115.496 17.6832 115.757 17.7483 116.064 17.7483C116.439 17.7483 116.749 17.6676 116.994 17.5061C117.244 17.3446 117.442 17.1233 117.588 16.842V13.4202C117.442 13.1337 117.246 12.9124 117.002 12.7561C116.757 12.5946 116.45 12.5139 116.08 12.5139C115.772 12.5139 115.509 12.5816 115.291 12.717C115.077 12.8472 114.903 13.0269 114.767 13.2561C114.632 13.4905 114.533 13.7639 114.47 14.0764C114.408 14.3837 114.377 14.7144 114.377 15.0686V15.2327Z" fill="white"/>
</svg>
